<?xml version="1.0" encoding="utf-8"?>
<!-- Generator: Adobe Illustrator 23.0.3, SVG Export Plug-In . SVG Version: 6.00 Build 0)  -->
<svg version="1.2" baseProfile="tiny" id="g-2019_07_Politica-Mesa_de_trabajo_1-img" xmlns="http://www.w3.org/2000/svg" xmlns:xlink="http://www.w3.org/1999/xlink"
	 x="0px" y="0px" viewBox="0 0 655 963" xml:space="preserve">
<g>
	<line fill="none" stroke="#D6D6D6" stroke-miterlimit="10" x1="68.827" y1="141" x2="68.827" y2="542.5"/>
	<line fill="none" stroke="#D6D6D6" stroke-miterlimit="10" x1="68.827" y1="597.5" x2="68.827" y2="899.5"/>
	<line fill="none" stroke="#D6D6D6" stroke-miterlimit="10" x1="5.709" y1="88" x2="5.709" y2="142.56"/>
	<line fill="none" stroke="#D6D6D6" stroke-miterlimit="10" x1="647.587" y1="88" x2="647.587" y2="142.56"/>
	<line fill="none" stroke="#D6D6D6" stroke-miterlimit="10" x1="133.015" y1="139.769" x2="133.015" y2="897.989"/>
	<line fill="none" stroke="#D6D6D6" stroke-miterlimit="10" x1="197.202" y1="139.769" x2="197.202" y2="897.989"/>
	<line fill="none" stroke="#D6D6D6" stroke-miterlimit="10" x1="262.46" y1="139.769" x2="262.46" y2="899"/>
	<line fill="none" stroke="#D6D6D6" stroke-miterlimit="10" x1="326.648" y1="109.396" x2="326.648" y2="897.972"/>
	<line fill="none" stroke="#D6D6D6" stroke-miterlimit="10" x1="390.836" y1="139.769" x2="390.836" y2="897.972"/>
	<line fill="none" stroke="#D6D6D6" stroke-miterlimit="10" x1="456.093" y1="139.769" x2="456.093" y2="897.972"/>
	<line fill="none" stroke="#D6D6D6" stroke-miterlimit="10" x1="520.281" y1="139.769" x2="520.281" y2="897.972"/>
	<line fill="none" stroke="#D6D6D6" stroke-miterlimit="10" x1="584.469" y1="139.769" x2="584.469" y2="897.972"/>
	<g>
		<rect x="4.604" y="835.219" fill="#A1B1E5" width="63.509" height="63.508"/>
		<g>
			<path fill="#FFFFFF" d="M67.613,835.718v62.509H5.104v-62.509H67.613 M68.613,834.718H4.104v64.509h64.509V834.718
				L68.613,834.718z"/>
		</g>
	</g>
	<g>
		<rect x="69.113" y="835.219" fill="#A1B1E5" width="63.509" height="63.508"/>
		<g>
			<path fill="#FFFFFF" d="M132.122,835.718v62.509H69.613v-62.509H132.122 M133.122,834.718H68.613v64.509h64.509V834.718
				L133.122,834.718z"/>
		</g>
	</g>
	<g>
		<rect x="133.622" y="835.219" fill="#6B7FD1" width="63.509" height="63.508"/>
		<g>
			<path fill="#FFFFFF" d="M196.63,835.718v62.509h-62.509v-62.509H196.63 M197.63,834.718h-64.509v64.509h64.509V834.718
				L197.63,834.718z"/>
		</g>
	</g>
	<g>
		<rect x="198.13" y="835.219" fill="#0B17AD" width="63.509" height="63.508"/>
		<g>
			<path fill="#FFFFFF" d="M261.139,835.718v62.509H198.63v-62.509H261.139 M262.139,834.718H197.63v64.509h64.509V834.718
				L262.139,834.718z"/>
		</g>
	</g>
	<g>
		<rect x="262.639" y="835.219" fill="#0B17AD" width="63.509" height="63.508"/>
		<g>
			<path fill="#FFFFFF" d="M325.648,835.718v62.509h-62.509v-62.509H325.648 M326.648,834.718h-64.509v64.509h64.509V834.718
				L326.648,834.718z"/>
		</g>
	</g>
	<g>
		<rect x="327.148" y="835.219" fill="#6B7FD1" width="63.508" height="63.508"/>
		<g>
			<path fill="#FFFFFF" d="M390.157,835.718v62.509h-62.509v-62.509H390.157 M391.157,834.718h-64.509v64.509h64.509V834.718
				L391.157,834.718z"/>
		</g>
	</g>
	<g>
		<rect x="391.656" y="835.219" fill="#A1B1E5" width="63.509" height="63.508"/>
		<g>
			<path fill="#FFFFFF" d="M454.665,835.718v62.509h-62.509v-62.509H454.665 M455.665,834.718h-64.509v64.509h64.509V834.718
				L455.665,834.718z"/>
		</g>
	</g>
	<g>
		<rect x="456.165" y="835.219" fill="#D4DEF9" width="63.509" height="63.508"/>
		<g>
			<path fill="#FFFFFF" d="M519.174,835.718v62.509h-62.509v-62.509H519.174 M520.174,834.718h-64.509v64.509h64.509V834.718
				L520.174,834.718z"/>
		</g>
	</g>
	<g>
		<rect x="520.674" y="835.219" fill="#D4DEF9" width="63.509" height="63.508"/>
		<g>
			<path fill="#FFFFFF" d="M583.683,835.718v62.509h-62.509v-62.509H583.683 M584.683,834.718h-64.509v64.509h64.509V834.718
				L584.683,834.718z"/>
		</g>
	</g>
	<g>
		<rect x="585.183" y="835.219" fill="#D4DEF9" width="63.509" height="63.508"/>
		<g>
			<path fill="#FFFFFF" d="M648.192,835.718v62.509h-62.509v-62.509H648.192 M649.192,834.718h-64.509v64.509h64.509V834.718
				L649.192,834.718z"/>
		</g>
	</g>
	<g>
		<rect x="4.604" y="716.471" fill="#E8BC03" width="63.509" height="63.509"/>
		<g>
			<path fill="#FFFFFF" d="M67.613,716.971v62.509H5.104v-62.509H67.613 M68.613,715.971H4.104v64.509h64.509V715.971
				L68.613,715.971z"/>
		</g>
	</g>
	<g>
		<rect x="69.113" y="716.471" fill="#E8BC03" width="63.509" height="63.509"/>
		<g>
			<path fill="#FFFFFF" d="M132.122,716.971v62.509H69.613v-62.509H132.122 M133.122,715.971H68.613v64.509h64.509V715.971
				L133.122,715.971z"/>
		</g>
	</g>
	<g>
		<rect x="133.622" y="716.471" fill="#E8BC03" width="63.509" height="63.509"/>
		<g>
			<path fill="#FFFFFF" d="M196.63,716.971v62.509h-62.509v-62.509H196.63 M197.63,715.971h-64.509v64.509h64.509V715.971
				L197.63,715.971z"/>
		</g>
	</g>
	<g>
		<rect x="198.13" y="716.471" fill="#E8BC03" width="63.509" height="63.509"/>
		<g>
			<path fill="#FFFFFF" d="M261.139,716.971v62.509H198.63v-62.509H261.139 M262.139,715.971H197.63v64.509h64.509V715.971
				L262.139,715.971z"/>
		</g>
	</g>
	<g>
		<rect x="262.639" y="716.471" fill="#F4E5A4" width="63.509" height="63.509"/>
		<g>
			<path fill="#FFFFFF" d="M325.648,716.971v62.509h-62.509v-62.509H325.648 M326.648,715.971h-64.509v64.509h64.509V715.971
				L326.648,715.971z"/>
		</g>
	</g>
	<g>
		<rect x="327.148" y="716.471" fill="#F7EDD0" width="63.508" height="63.509"/>
		<g>
			<path fill="#FFFFFF" d="M390.157,716.971v62.509h-62.509v-62.509H390.157 M391.157,715.971h-64.509v64.509h64.509V715.971
				L391.157,715.971z"/>
		</g>
	</g>
	<g>
		<rect x="391.656" y="716.471" fill="#F7EDD0" width="63.509" height="63.509"/>
		<g>
			<path fill="#FFFFFF" d="M454.665,716.971v62.509h-62.509v-62.509H454.665 M455.665,715.971h-64.509v64.509h64.509V715.971
				L455.665,715.971z"/>
		</g>
	</g>
	<g>
		<rect x="456.165" y="716.471" fill="#F7EDD0" width="63.509" height="63.509"/>
		<g>
			<path fill="#FFFFFF" d="M519.174,716.971v62.509h-62.509v-62.509H519.174 M520.174,715.971h-64.509v64.509h64.509V715.971
				L520.174,715.971z"/>
		</g>
	</g>
	<g>
		<rect x="520.674" y="716.471" fill="#F7EDD0" width="63.509" height="63.509"/>
		<g>
			<path fill="#FFFFFF" d="M583.683,716.971v62.509h-62.509v-62.509H583.683 M584.683,715.971h-64.509v64.509h64.509V715.971
				L584.683,715.971z"/>
		</g>
	</g>
	<g>
		<rect x="585.183" y="716.471" fill="#F7EDD0" width="63.509" height="63.509"/>
		<g>
			<path fill="#FFFFFF" d="M648.192,716.971v62.509h-62.509v-62.509H648.192 M649.192,715.971h-64.509v64.509h64.509V715.971
				L649.192,715.971z"/>
		</g>
	</g>
	<g>
		<rect x="4.604" y="597.724" fill="#EEF7CB" width="63.509" height="63.509"/>
		<g>
			<path fill="#FFFFFF" d="M67.613,598.223v62.509H5.104v-62.509H67.613 M68.613,597.223H4.104v64.509h64.509V597.223
				L68.613,597.223z"/>
		</g>
	</g>
	<g>
		<rect x="69.113" y="597.724" fill="#EEF7CB" width="63.509" height="63.509"/>
		<g>
			<path fill="#FFFFFF" d="M132.122,598.223v62.509H69.613v-62.509H132.122 M133.122,597.223H68.613v64.509h64.509V597.223
				L133.122,597.223z"/>
		</g>
	</g>
	<g>
		<rect x="133.622" y="597.724" fill="#EEF7CB" width="63.509" height="63.509"/>
		<g>
			<path fill="#FFFFFF" d="M196.63,598.223v62.509h-62.509v-62.509H196.63 M197.63,597.223h-64.509v64.509h64.509V597.223
				L197.63,597.223z"/>
		</g>
	</g>
	<g>
		<rect x="198.13" y="597.724" fill="#EEF7CB" width="63.509" height="63.509"/>
		<g>
			<path fill="#FFFFFF" d="M261.139,598.223v62.509H198.63v-62.509H261.139 M262.139,597.223H197.63v64.509h64.509V597.223
				L262.139,597.223z"/>
		</g>
	</g>
	<g>
		<rect x="262.639" y="597.724" fill="#C1DB8F" width="63.509" height="63.509"/>
		<g>
			<path fill="#FFFFFF" d="M325.648,598.223v62.509h-62.509v-62.509H325.648 M326.648,597.223h-64.509v64.509h64.509V597.223
				L326.648,597.223z"/>
		</g>
	</g>
	<g>
		<rect x="327.148" y="597.724" fill="#8DB746" width="63.508" height="63.509"/>
		<g>
			<path fill="#FFFFFF" d="M390.157,598.223v62.509h-62.509v-62.509H390.157 M391.157,597.223h-64.509v64.509h64.509V597.223
				L391.157,597.223z"/>
		</g>
	</g>
	<g>
		<rect x="391.656" y="597.724" fill="#5F9904" width="63.509" height="63.509"/>
		<path fill="#FFFFFF" d="M454.665,598.223v62.509h-62.509v-62.509H454.665 M455.665,597.223h-64.509v64.509h64.509V597.223
			L455.665,597.223z"/>
	</g>
	<g>
		<rect x="456.165" y="597.724" fill="#5F9904" width="63.509" height="63.509"/>
		<path fill="#FFFFFF" d="M519.174,598.223v62.509h-62.509v-62.509H519.174 M520.174,597.223h-64.509v64.509h64.509V597.223
			L520.174,597.223z"/>
	</g>
	<g>
		<rect x="520.674" y="597.724" fill="#5F9904" width="63.509" height="63.509"/>
		<path fill="#FFFFFF" d="M583.683,598.223v62.509h-62.509v-62.509H583.683 M584.683,597.223h-64.509v64.509h64.509V597.223
			L584.683,597.223z"/>
	</g>
	<g>
		<rect x="585.183" y="597.724" fill="#8DB746" width="63.509" height="63.509"/>
		<g>
			<path fill="#FFFFFF" d="M648.192,598.223v62.509h-62.509v-62.509H648.192 M649.192,597.223h-64.509v64.509h64.509V597.223
				L649.192,597.223z"/>
		</g>
	</g>
	<g>
		<rect x="4.604" y="478.976" fill="#B2008C" width="63.509" height="63.508"/>
		<path fill="#FFFFFF" d="M67.613,479.476v62.509H5.104v-62.509H67.613 M68.613,478.476H4.104v64.509h64.509V478.476L68.613,478.476
			z"/>
	</g>
	<g>
		<rect x="69.113" y="478.976" fill="#B2008C" width="63.509" height="63.508"/>
		<path fill="#FFFFFF" d="M132.122,479.476v62.509H69.613v-62.509H132.122 M133.122,478.476H68.613v64.509h64.509V478.476
			L133.122,478.476z"/>
	</g>
	<g>
		<rect x="133.622" y="478.976" fill="#B2008C" width="63.509" height="63.508"/>
		<path fill="#FFFFFF" d="M196.63,479.476v62.509h-62.509v-62.509H196.63 M197.63,478.476h-64.509v64.509h64.509V478.476
			L197.63,478.476z"/>
	</g>
	<g>
		<rect x="198.13" y="478.976" fill="#C963B6" width="63.509" height="63.508"/>
		<g>
			<path fill="#FFFFFF" d="M261.139,479.476v62.509H198.63v-62.509H261.139 M262.139,478.476H197.63v64.509h64.509V478.476
				L262.139,478.476z"/>
		</g>
	</g>
	<g>
		<rect x="262.639" y="478.976" fill="#E59ADA" width="63.509" height="63.508"/>
		<g>
			<path fill="#FFFFFF" d="M325.648,479.476v62.509h-62.509v-62.509H325.648 M326.648,478.476h-64.509v64.509h64.509V478.476
				L326.648,478.476z"/>
		</g>
	</g>
	<g>
		<rect x="327.148" y="478.976" fill="#FCDBFB" width="63.508" height="63.508"/>
		<g>
			<path fill="#FFFFFF" d="M390.157,479.476v62.509h-62.509v-62.509H390.157 M391.157,478.476h-64.509v64.509h64.509V478.476
				L391.157,478.476z"/>
		</g>
	</g>
	<g>
		<rect x="391.656" y="478.976" fill="#FCDBFB" width="63.509" height="63.508"/>
		<g>
			<path fill="#FFFFFF" d="M454.665,479.476v62.509h-62.509v-62.509H454.665 M455.665,478.476h-64.509v64.509h64.509V478.476
				L455.665,478.476z"/>
		</g>
	</g>
	<g>
		<rect x="456.165" y="478.976" fill="#FCDBFB" width="63.509" height="63.508"/>
		<g>
			<path fill="#FFFFFF" d="M519.174,479.476v62.509h-62.509v-62.509H519.174 M520.174,478.476h-64.509v64.509h64.509V478.476
				L520.174,478.476z"/>
		</g>
	</g>
	<g>
		<rect x="520.674" y="478.976" fill="#FCDBFB" width="63.509" height="63.508"/>
		<g>
			<path fill="#FFFFFF" d="M583.683,479.476v62.509h-62.509v-62.509H583.683 M584.683,478.476h-64.509v64.509h64.509V478.476
				L584.683,478.476z"/>
		</g>
	</g>
	<g>
		<rect x="585.183" y="478.976" fill="#FCDBFB" width="63.509" height="63.508"/>
		<g>
			<path fill="#FFFFFF" d="M648.192,479.476v62.509h-62.509v-62.509H648.192 M649.192,478.476h-64.509v64.509h64.509V478.476
				L649.192,478.476z"/>
		</g>
	</g>
	<g>
		<rect x="4.604" y="364.508" fill="#F4E9E1" width="63.509" height="63.509"/>
		<g>
			<path fill="#FFFFFF" d="M67.613,365.008v62.509H5.104v-62.509H67.613 M68.613,364.008H4.104v64.509h64.509V364.008
				L68.613,364.008z"/>
		</g>
	</g>
	<g>
		<rect x="69.113" y="364.508" fill="#F4E9E1" width="63.509" height="63.509"/>
		<g>
			<path fill="#FFFFFF" d="M132.122,365.008v62.509H69.613v-62.509H132.122 M133.122,364.008H68.613v64.509h64.509V364.008
				L133.122,364.008z"/>
		</g>
	</g>
	<g>
		<rect x="133.622" y="364.508" fill="#F4E9E1" width="63.509" height="63.509"/>
		<g>
			<path fill="#FFFFFF" d="M196.63,365.008v62.509h-62.509v-62.509H196.63 M197.63,364.008h-64.509v64.509h64.509V364.008
				L197.63,364.008z"/>
		</g>
	</g>
	<g>
		<rect x="198.13" y="364.508" fill="#F4E9E1" width="63.509" height="63.509"/>
		<g>
			<path fill="#FFFFFF" d="M261.139,365.008v62.509H198.63v-62.509H261.139 M262.139,364.008H197.63v64.509h64.509V364.008
				L262.139,364.008z"/>
		</g>
	</g>
	<g>
		<rect x="262.639" y="364.508" fill="#E26E05" width="63.509" height="63.509"/>
		<path fill="#FFFFFF" d="M325.648,365.008v62.509h-62.509v-62.509H325.648 M326.648,364.008h-64.509v64.509h64.509V364.008
			L326.648,364.008z"/>
	</g>
	<g>
		<rect x="327.148" y="364.508" fill="#E26E05" width="63.508" height="63.509"/>
		<path fill="#FFFFFF" d="M390.157,365.008v62.509h-62.509v-62.509H390.157 M391.157,364.008h-64.509v64.509h64.509V364.008
			L391.157,364.008z"/>
	</g>
	<g>
		<rect x="391.656" y="364.508" fill="#EDB280" width="63.509" height="63.509"/>
		<g>
			<path fill="#FFFFFF" d="M454.665,365.008v62.509h-62.509v-62.509H454.665 M455.665,364.008h-64.509v64.509h64.509V364.008
				L455.665,364.008z"/>
		</g>
	</g>
	<g>
		<rect x="456.165" y="364.508" fill="#F4E9E1" width="63.509" height="63.509"/>
		<g>
			<path fill="#FFFFFF" d="M519.174,365.008v62.509h-62.509v-62.509H519.174 M520.174,364.008h-64.509v64.509h64.509V364.008
				L520.174,364.008z"/>
		</g>
	</g>
	<g>
		<rect x="520.674" y="364.508" fill="#F4E9E1" width="63.509" height="63.509"/>
		<g>
			<path fill="#FFFFFF" d="M583.683,365.008v62.509h-62.509v-62.509H583.683 M584.683,364.008h-64.509v64.509h64.509V364.008
				L584.683,364.008z"/>
		</g>
	</g>
	<g>
		<rect x="585.183" y="364.508" fill="#F4E9E1" width="63.509" height="63.509"/>
		<g>
			<path fill="#FFFFFF" d="M648.192,365.008v62.509h-62.509v-62.509H648.192 M649.192,364.008h-64.509v64.509h64.509V364.008
				L649.192,364.008z"/>
		</g>
	</g>
	<g>
		<rect x="4.604" y="251.109" fill="#DCEFF4" width="63.509" height="63.508"/>
		<g>
			<path fill="#FFFFFF" d="M67.613,251.609v62.509H5.104v-62.509H67.613 M68.613,250.609H4.104v64.509h64.509V250.609
				L68.613,250.609z"/>
		</g>
	</g>
	<g>
		<rect x="69.113" y="251.109" fill="#DCEFF4" width="63.509" height="63.508"/>
		<g>
			<path fill="#FFFFFF" d="M132.122,251.609v62.509H69.613v-62.509H132.122 M133.122,250.609H68.613v64.509h64.509V250.609
				L133.122,250.609z"/>
		</g>
	</g>
	<g>
		<rect x="133.622" y="251.109" fill="#DCEFF4" width="63.509" height="63.508"/>
		<g>
			<path fill="#FFFFFF" d="M196.63,251.609v62.509h-62.509v-62.509H196.63 M197.63,250.609h-64.509v64.509h64.509V250.609
				L197.63,250.609z"/>
		</g>
	</g>
	<g>
		<rect x="198.13" y="251.109" fill="#DCEFF4" width="63.509" height="63.508"/>
		<g>
			<path fill="#FFFFFF" d="M261.139,251.609v62.509H198.63v-62.509H261.139 M262.139,250.609H197.63v64.509h64.509V250.609
				L262.139,250.609z"/>
		</g>
	</g>
	<g>
		<rect x="262.639" y="251.109" fill="#44B2CC" width="63.509" height="63.508"/>
		<g>
			<path fill="#FFFFFF" d="M325.648,251.609v62.509h-62.509v-62.509H325.648 M326.648,250.609h-64.509v64.509h64.509V250.609
				L326.648,250.609z"/>
		</g>
	</g>
	<g>
		<rect x="327.148" y="251.109" fill="#0087BC" width="63.508" height="63.508"/>
		<path fill="#FFFFFF" d="M390.157,251.609v62.509h-62.509v-62.509H390.157 M391.157,250.609h-64.509v64.509h64.509V250.609
			L391.157,250.609z"/>
	</g>
	<g>
		<rect x="391.656" y="251.109" fill="#0087BC" width="63.509" height="63.508"/>
		<path fill="#FFFFFF" d="M454.665,251.609v62.509h-62.509v-62.509H454.665 M455.665,250.609h-64.509v64.509h64.509V250.609
			L455.665,250.609z"/>
	</g>
	<g>
		<rect x="456.165" y="251.109" fill="#0087BC" width="63.509" height="63.508"/>
		<path fill="#FFFFFF" d="M519.174,251.609v62.509h-62.509v-62.509H519.174 M520.174,250.609h-64.509v64.509h64.509V250.609
			L520.174,250.609z"/>
	</g>
	<g>
		<rect x="520.674" y="251.109" fill="#ABD1DD" width="63.509" height="63.508"/>
		<g>
			<path fill="#FFFFFF" d="M583.683,251.609v62.509h-62.509v-62.509H583.683 M584.683,250.609h-64.509v64.509h64.509V250.609
				L584.683,250.609z"/>
		</g>
	</g>
	<g>
		<rect x="585.183" y="251.109" fill="#DCEFF4" width="63.509" height="63.508"/>
		<g>
			<path fill="#FFFFFF" d="M648.192,251.609v62.509h-62.509v-62.509H648.192 M649.192,250.609h-64.509v64.509h64.509V250.609
				L649.192,250.609z"/>
		</g>
	</g>
	<g>
		<rect x="4.604" y="141.99" fill="#FCE6E6" width="63.509" height="63.509"/>
		<g>
			<path fill="#FFFFFF" d="M67.613,142.49v62.509H5.104V142.49H67.613 M68.613,141.49H4.104v64.509h64.509V141.49L68.613,141.49z"/>
		</g>
	</g>
	<g>
		<rect x="69.113" y="141.99" fill="#F48282" width="63.509" height="63.509"/>
		<g>
			<path fill="#FFFFFF" d="M132.122,142.49v62.509H69.613V142.49H132.122 M133.122,141.49H68.613v64.509h64.509V141.49
				L133.122,141.49z"/>
		</g>
	</g>
	<g>
		<rect x="133.622" y="141.99" fill="#FF0000" width="63.509" height="63.509"/>
		<g>
			<path fill="#FFFFFF" d="M196.63,142.49v62.509h-62.509V142.49H196.63 M197.63,141.49h-64.509v64.509h64.509V141.49L197.63,141.49
				z"/>
		</g>
	</g>
	<g>
		<rect x="198.13" y="141.99" fill="#FF0000" width="63.509" height="63.509"/>
		<path fill="#FFFFFF" d="M261.139,142.49v62.509H198.63V142.49H261.139 M262.139,141.49H197.63v64.509h64.509V141.49
			L262.139,141.49z"/>
	</g>
	<g>
		<rect x="262.639" y="141.99" fill="#FF0000" width="63.509" height="63.509"/>
		<g>
			<path fill="#FFFFFF" d="M325.648,142.49v62.509h-62.509V142.49H325.648 M326.648,141.49h-64.509v64.509h64.509V141.49
				L326.648,141.49z"/>
		</g>
	</g>
	<g>
		<rect x="327.148" y="141.99" fill="#FCE6E6" width="63.508" height="63.509"/>
		<g>
			<path fill="#FFFFFF" d="M390.157,142.49v62.509h-62.509V142.49H390.157 M391.157,141.49h-64.509v64.509h64.509V141.49
				L391.157,141.49z"/>
		</g>
	</g>
	<g>
		<rect x="391.656" y="141.99" fill="#FCE6E6" width="63.509" height="63.509"/>
		<path fill="#FFFFFF" d="M454.665,142.49v62.509h-62.509V142.49H454.665 M455.665,141.49h-64.509v64.509h64.509V141.49
			L455.665,141.49z"/>
	</g>
	<g>
		<rect x="456.165" y="141.99" fill="#FCE6E6" width="63.509" height="63.509"/>
		<path fill="#FFFFFF" d="M519.174,142.49v62.509h-62.509V142.49H519.174 M520.174,141.49h-64.509v64.509h64.509V141.49
			L520.174,141.49z"/>
	</g>
	<g>
		<rect x="520.674" y="141.99" fill="#FCE6E6" width="63.509" height="63.509"/>
		<path fill="#FFFFFF" d="M583.683,142.49v62.509h-62.509V142.49H583.683 M584.683,141.49h-64.509v64.509h64.509V141.49
			L584.683,141.49z"/>
	</g>
	<g>
		<rect x="585.183" y="141.99" fill="#FCE6E6" width="63.509" height="63.509"/>
		<path fill="#FFFFFF" d="M648.192,142.49v62.509h-62.509V142.49H648.192 M649.192,141.49h-64.509v64.509h64.509V141.49
			L649.192,141.49z"/>
	</g>
	<line fill="none" stroke="#323232" stroke-miterlimit="10" x1="4" y1="941" x2="654.5" y2="941"/>
</g>
<style type="text/css">
#g-2019_07_Politica-Mesa_de_trabajo_1-img rect, #g-2019_07_Politica-Mesa_de_trabajo_1-img circle, #g-2019_07_Politica-Mesa_de_trabajo_1-img path, #g-2019_07_Politica-Mesa_de_trabajo_1-img line, #g-2019_07_Politica-Mesa_de_trabajo_1-img polyline { vector-effect: non-scaling-stroke; }
</style>
</svg>

