<?xml version="1.0" encoding="utf-8"?>
<!-- Generator: Adobe Illustrator 23.0.3, SVG Export Plug-In . SVG Version: 6.00 Build 0)  -->
<svg version="1.2" baseProfile="tiny" id="g-2019_07_Politica-Mesa_de_trabajo_2-img" xmlns="http://www.w3.org/2000/svg" xmlns:xlink="http://www.w3.org/1999/xlink"
	 x="0px" y="0px" viewBox="0 0 300 800" xml:space="preserve">
<g>
	<line fill="none" stroke="#D6D6D6" stroke-miterlimit="10" x1="8.785" y1="131.5" x2="8.785" y2="163.826"/>
	<line fill="none" stroke="#D6D6D6" stroke-miterlimit="10" x1="298.215" y1="131.5" x2="298.215" y2="163.826"/>
	<line fill="none" stroke="#D6D6D6" stroke-miterlimit="10" x1="93.508" y1="162.381" x2="93.508" y2="717.309"/>
	<line fill="none" stroke="#D6D6D6" stroke-miterlimit="10" x1="64.715" y1="163" x2="64.715" y2="463.651"/>
	<line fill="none" stroke="#D6D6D6" stroke-miterlimit="10" x1="64.715" y1="474.644" x2="64.715" y2="717.518"/>
	<line fill="none" stroke="#D6D6D6" stroke-miterlimit="10" x1="35.922" y1="656.5" x2="35.922" y2="674.5"/>
	<line fill="none" stroke="#D6D6D6" stroke-miterlimit="10" x1="36.327" y1="569.5" x2="36.327" y2="588"/>
	<line fill="none" stroke="#D6D6D6" stroke-miterlimit="10" x1="36.327" y1="486.5" x2="36.327" y2="503"/>
	<line fill="none" stroke="#D6D6D6" stroke-miterlimit="10" x1="36.327" y1="372.5" x2="36.327" y2="422"/>
	<line fill="none" stroke="#D6D6D6" stroke-miterlimit="10" x1="36.327" y1="284.5" x2="36.327" y2="334"/>
	<line fill="none" stroke="#D6D6D6" stroke-miterlimit="10" x1="36.327" y1="230.5" x2="36.327" y2="280"/>
	<line fill="none" stroke="#D6D6D6" stroke-miterlimit="10" x1="36.327" y1="163" x2="36.327" y2="199.713"/>
	<line fill="none" stroke="#D6D6D6" stroke-miterlimit="10" x1="122.744" y1="162.381" x2="122.744" y2="718"/>
	<line fill="none" stroke="#D6D6D6" stroke-miterlimit="10" x1="151.5" y1="145.5" x2="151.5" y2="711.516"/>
	<line fill="none" stroke="#D6D6D6" stroke-miterlimit="10" x1="180.256" y1="162.381" x2="180.256" y2="717.303"/>
	<line fill="none" stroke="#D6D6D6" stroke-miterlimit="10" x1="209.492" y1="162.381" x2="209.492" y2="717.303"/>
	<line fill="none" stroke="#D6D6D6" stroke-miterlimit="10" x1="238.248" y1="162.381" x2="238.248" y2="717.303"/>
	<line fill="none" stroke="#D6D6D6" stroke-miterlimit="10" x1="267.004" y1="162.381" x2="267.004" y2="717.303"/>
	<g>
		<rect x="7.5" y="674.513" fill="#A1B1E5" width="27.9" height="42.542"/>
		<g>
			<path fill="#FFFFFF" d="M34.9,675.013v41.542H8v-41.542H34.9 M35.9,674.013H7v43.542h28.9V674.013L35.9,674.013z"/>
		</g>
	</g>
	<g>
		<rect x="36.4" y="674.513" fill="#A1B1E5" width="27.9" height="42.542"/>
		<g>
			<path fill="#FFFFFF" d="M63.8,675.013v41.542H36.9v-41.542H63.8 M64.8,674.013H35.9v43.542h28.9V674.013L64.8,674.013z"/>
		</g>
	</g>
	<g>
		<rect x="65.3" y="674.513" fill="#6B7FD1" width="27.9" height="42.542"/>
		<g>
			<path fill="#FFFFFF" d="M92.7,675.013v41.542H65.8v-41.542H92.7 M93.7,674.013H64.8v43.542h28.9V674.013L93.7,674.013z"/>
		</g>
	</g>
	<g>
		<rect x="94.2" y="674.513" fill="#0B17AD" width="27.9" height="42.542"/>
		<g>
			<path fill="#FFFFFF" d="M121.6,675.013v41.542H94.7v-41.542H121.6 M122.6,674.013H93.7v43.542h28.9V674.013L122.6,674.013z"/>
		</g>
	</g>
	<g>
		<rect x="123.1" y="674.513" fill="#0B17AD" width="27.9" height="42.542"/>
		<g>
			<path fill="#FFFFFF" d="M150.5,675.013v41.542h-26.9v-41.542H150.5 M151.5,674.013h-28.9v43.542h28.9V674.013L151.5,674.013z"/>
		</g>
	</g>
	<g>
		<rect x="152" y="674.513" fill="#6B7FD1" width="27.9" height="42.542"/>
		<g>
			<path fill="#FFFFFF" d="M179.4,675.013v41.542h-26.9v-41.542H179.4 M180.4,674.013h-28.9v43.542h28.9V674.013L180.4,674.013z"/>
		</g>
	</g>
	<g>
		<rect x="180.9" y="674.513" fill="#A1B1E5" width="27.899" height="42.542"/>
		<g>
			<path fill="#FFFFFF" d="M208.3,675.013v41.542h-26.9v-41.542H208.3 M209.3,674.013h-28.9v43.542h28.9V674.013L209.3,674.013z"/>
		</g>
	</g>
	<g>
		<rect x="209.8" y="674.513" fill="#D4DEF9" width="27.9" height="42.542"/>
		<g>
			<path fill="#FFFFFF" d="M237.2,675.013v41.542h-26.9v-41.542H237.2 M238.2,674.013h-28.9v43.542h28.9V674.013L238.2,674.013z"/>
		</g>
	</g>
	<g>
		<rect x="238.7" y="674.513" fill="#D4DEF9" width="27.899" height="42.542"/>
		<g>
			<path fill="#FFFFFF" d="M266.1,675.013v41.542h-26.9v-41.542H266.1 M267.1,674.013h-28.9v43.542h28.9V674.013L267.1,674.013z"/>
		</g>
	</g>
	<g>
		<rect x="267.6" y="674.513" fill="#D4DEF9" width="27.9" height="42.542"/>
		<g>
			<path fill="#FFFFFF" d="M295,675.013v41.542h-26.9v-41.542H295 M296,674.013h-28.9v43.542H296V674.013L296,674.013z"/>
		</g>
	</g>
	<g>
		<rect x="7.5" y="588.361" fill="#E8BC03" width="27.9" height="42.542"/>
		<g>
			<path fill="#FFFFFF" d="M34.9,588.862v41.542H8v-41.542H34.9 M35.9,587.862H7v43.542h28.9V587.862L35.9,587.862z"/>
		</g>
	</g>
	<g>
		<rect x="36.4" y="588.361" fill="#E8BC03" width="27.9" height="42.542"/>
		<g>
			<path fill="#FFFFFF" d="M63.8,588.862v41.542H36.9v-41.542H63.8 M64.8,587.862H35.9v43.542h28.9V587.862L64.8,587.862z"/>
		</g>
	</g>
	<g>
		<rect x="65.3" y="588.361" fill="#E8BC03" width="27.9" height="42.542"/>
		<g>
			<path fill="#FFFFFF" d="M92.7,588.862v41.542H65.8v-41.542H92.7 M93.7,587.862H64.8v43.542h28.9V587.862L93.7,587.862z"/>
		</g>
	</g>
	<g>
		<rect x="94.2" y="588.361" fill="#E8BC03" width="27.9" height="42.542"/>
		<g>
			<path fill="#FFFFFF" d="M121.6,588.862v41.542H94.7v-41.542H121.6 M122.6,587.862H93.7v43.542h28.9V587.862L122.6,587.862z"/>
		</g>
	</g>
	<g>
		<rect x="123.1" y="588.361" fill="#F4E5A4" width="27.9" height="42.542"/>
		<g>
			<path fill="#FFFFFF" d="M150.5,588.862v41.542h-26.9v-41.542H150.5 M151.5,587.862h-28.9v43.542h28.9V587.862L151.5,587.862z"/>
		</g>
	</g>
	<g>
		<rect x="152" y="588.361" fill="#F7EDD0" width="27.9" height="42.542"/>
		<g>
			<path fill="#FFFFFF" d="M179.4,588.862v41.542h-26.9v-41.542H179.4 M180.4,587.862h-28.9v43.542h28.9V587.862L180.4,587.862z"/>
		</g>
	</g>
	<g>
		<rect x="180.9" y="588.361" fill="#F7EDD0" width="27.899" height="42.542"/>
		<g>
			<path fill="#FFFFFF" d="M208.3,588.862v41.542h-26.9v-41.542H208.3 M209.3,587.862h-28.9v43.542h28.9V587.862L209.3,587.862z"/>
		</g>
	</g>
	<g>
		<rect x="209.8" y="588.361" fill="#F7EDD0" width="27.9" height="42.542"/>
		<g>
			<path fill="#FFFFFF" d="M237.2,588.862v41.542h-26.9v-41.542H237.2 M238.2,587.862h-28.9v43.542h28.9V587.862L238.2,587.862z"/>
		</g>
	</g>
	<g>
		<rect x="238.7" y="588.361" fill="#F7EDD0" width="27.899" height="42.542"/>
		<g>
			<path fill="#FFFFFF" d="M266.1,588.862v41.542h-26.9v-41.542H266.1 M267.1,587.862h-28.9v43.542h28.9V587.862L267.1,587.862z"/>
		</g>
	</g>
	<g>
		<rect x="267.6" y="588.361" fill="#F7EDD0" width="27.9" height="42.542"/>
		<g>
			<path fill="#FFFFFF" d="M295,588.862v41.542h-26.9v-41.542H295 M296,587.862h-28.9v43.542H296V587.862L296,587.862z"/>
		</g>
	</g>
	<g>
		<rect x="7.5" y="503.211" fill="#EEF7CB" width="27.9" height="42.541"/>
		<g>
			<path fill="#FFFFFF" d="M34.9,503.711v41.542H8v-41.542H34.9 M35.9,502.711H7v43.542h28.9V502.711L35.9,502.711z"/>
		</g>
	</g>
	<g>
		<rect x="36.4" y="503.211" fill="#EEF7CB" width="27.9" height="42.541"/>
		<g>
			<path fill="#FFFFFF" d="M63.8,503.711v41.542H36.9v-41.542H63.8 M64.8,502.711H35.9v43.542h28.9V502.711L64.8,502.711z"/>
		</g>
	</g>
	<g>
		<rect x="65.3" y="503.211" fill="#EEF7CB" width="27.9" height="42.541"/>
		<g>
			<path fill="#FFFFFF" d="M92.7,503.711v41.542H65.8v-41.542H92.7 M93.7,502.711H64.8v43.542h28.9V502.711L93.7,502.711z"/>
		</g>
	</g>
	<g>
		<rect x="94.2" y="503.211" fill="#EEF7CB" width="27.9" height="42.541"/>
		<g>
			<path fill="#FFFFFF" d="M121.6,503.711v41.542H94.7v-41.542H121.6 M122.6,502.711H93.7v43.542h28.9V502.711L122.6,502.711z"/>
		</g>
	</g>
	<g>
		<rect x="123.1" y="503.211" fill="#C1DB8F" width="27.9" height="42.541"/>
		<g>
			<path fill="#FFFFFF" d="M150.5,503.711v41.542h-26.9v-41.542H150.5 M151.5,502.711h-28.9v43.542h28.9V502.711L151.5,502.711z"/>
		</g>
	</g>
	<g>
		<rect x="152" y="503.211" fill="#8DB746" width="27.9" height="42.541"/>
		<g>
			<path fill="#FFFFFF" d="M179.4,503.711v41.542h-26.9v-41.542H179.4 M180.4,502.711h-28.9v43.542h28.9V502.711L180.4,502.711z"/>
		</g>
	</g>
	<g>
		<rect x="180.9" y="503.211" fill="#5F9904" width="27.899" height="42.541"/>
		<path fill="#FFFFFF" d="M208.3,503.711v41.542h-26.9v-41.542H208.3 M209.3,502.711h-28.9v43.542h28.9V502.711L209.3,502.711z"/>
	</g>
	<g>
		<rect x="209.8" y="503.211" fill="#5F9904" width="27.9" height="42.541"/>
		<path fill="#FFFFFF" d="M237.2,503.711v41.542h-26.9v-41.542H237.2 M238.2,502.711h-28.9v43.542h28.9V502.711L238.2,502.711z"/>
	</g>
	<g>
		<rect x="238.7" y="503.211" fill="#5F9904" width="27.899" height="42.541"/>
		<path fill="#FFFFFF" d="M266.1,503.711v41.542h-26.9v-41.542H266.1 M267.1,502.711h-28.9v43.542h28.9V502.711L267.1,502.711z"/>
	</g>
	<g>
		<rect x="267.6" y="503.211" fill="#8DB746" width="27.9" height="42.541"/>
		<g>
			<path fill="#FFFFFF" d="M295,503.711v41.542h-26.9v-41.542H295 M296,502.711h-28.9v43.542H296V502.711L296,502.711z"/>
		</g>
	</g>
	<g>
		<rect x="7.5" y="418.06" fill="#B2008C" width="27.9" height="42.542"/>
		<path fill="#FFFFFF" d="M34.9,418.56v41.542H8V418.56H34.9 M35.9,417.56H7v43.542h28.9V417.56L35.9,417.56z"/>
	</g>
	<g>
		<rect x="36.4" y="418.06" fill="#B2008C" width="27.9" height="42.542"/>
		<path fill="#FFFFFF" d="M63.8,418.56v41.542H36.9V418.56H63.8 M64.8,417.56H35.9v43.542h28.9V417.56L64.8,417.56z"/>
	</g>
	<g>
		<rect x="65.3" y="418.06" fill="#B2008C" width="27.9" height="42.542"/>
		<path fill="#FFFFFF" d="M92.7,418.56v41.542H65.8V418.56H92.7 M93.7,417.56H64.8v43.542h28.9V417.56L93.7,417.56z"/>
	</g>
	<g>
		<rect x="94.2" y="418.06" fill="#C963B6" width="27.9" height="42.542"/>
		<g>
			<path fill="#FFFFFF" d="M121.6,418.56v41.542H94.7V418.56H121.6 M122.6,417.56H93.7v43.542h28.9V417.56L122.6,417.56z"/>
		</g>
	</g>
	<g>
		<rect x="123.1" y="418.06" fill="#E59ADA" width="27.9" height="42.542"/>
		<g>
			<path fill="#FFFFFF" d="M150.5,418.56v41.542h-26.9V418.56H150.5 M151.5,417.56h-28.9v43.542h28.9V417.56L151.5,417.56z"/>
		</g>
	</g>
	<g>
		<rect x="152" y="418.06" fill="#FCDBFB" width="27.9" height="42.542"/>
		<g>
			<path fill="#FFFFFF" d="M179.4,418.56v41.542h-26.9V418.56H179.4 M180.4,417.56h-28.9v43.542h28.9V417.56L180.4,417.56z"/>
		</g>
	</g>
	<g>
		<rect x="180.9" y="418.06" fill="#FCDBFB" width="27.899" height="42.542"/>
		<g>
			<path fill="#FFFFFF" d="M208.3,418.56v41.542h-26.9V418.56H208.3 M209.3,417.56h-28.9v43.542h28.9V417.56L209.3,417.56z"/>
		</g>
	</g>
	<g>
		<rect x="209.8" y="418.06" fill="#FCDBFB" width="27.9" height="42.542"/>
		<g>
			<path fill="#FFFFFF" d="M237.2,418.56v41.542h-26.9V418.56H237.2 M238.2,417.56h-28.9v43.542h28.9V417.56L238.2,417.56z"/>
		</g>
	</g>
	<g>
		<rect x="238.7" y="418.06" fill="#FCDBFB" width="27.899" height="42.542"/>
		<g>
			<path fill="#FFFFFF" d="M266.1,418.56v41.542h-26.9V418.56H266.1 M267.1,417.56h-28.9v43.542h28.9V417.56L267.1,417.56z"/>
		</g>
	</g>
	<g>
		<rect x="267.6" y="418.06" fill="#FCDBFB" width="27.9" height="42.542"/>
		<g>
			<path fill="#FFFFFF" d="M295,418.56v41.542h-26.9V418.56H295 M296,417.56h-28.9v43.542H296V417.56L296,417.56z"/>
		</g>
	</g>
	<g>
		<rect x="7.5" y="332.797" fill="#F4E9E1" width="27.9" height="42.542"/>
		<g>
			<path fill="#FFFFFF" d="M34.9,333.297v41.542H8v-41.542H34.9 M35.9,332.297H7v43.542h28.9V332.297L35.9,332.297z"/>
		</g>
	</g>
	<g>
		<rect x="36.4" y="332.797" fill="#F4E9E1" width="27.9" height="42.542"/>
		<g>
			<path fill="#FFFFFF" d="M63.8,333.297v41.542H36.9v-41.542H63.8 M64.8,332.297H35.9v43.542h28.9V332.297L64.8,332.297z"/>
		</g>
	</g>
	<g>
		<rect x="65.3" y="332.797" fill="#F4E9E1" width="27.9" height="42.542"/>
		<g>
			<path fill="#FFFFFF" d="M92.7,333.297v41.542H65.8v-41.542H92.7 M93.7,332.297H64.8v43.542h28.9V332.297L93.7,332.297z"/>
		</g>
	</g>
	<g>
		<rect x="94.2" y="332.797" fill="#F4E9E1" width="27.9" height="42.542"/>
		<g>
			<path fill="#FFFFFF" d="M121.6,333.297v41.542H94.7v-41.542H121.6 M122.6,332.297H93.7v43.542h28.9V332.297L122.6,332.297z"/>
		</g>
	</g>
	<g>
		<rect x="123.1" y="332.797" fill="#E26E05" width="27.9" height="42.542"/>
		<path fill="#FFFFFF" d="M150.5,333.297v41.542h-26.9v-41.542H150.5 M151.5,332.297h-28.9v43.542h28.9V332.297L151.5,332.297z"/>
	</g>
	<g>
		<rect x="152" y="332.797" fill="#E26E05" width="27.9" height="42.542"/>
		<path fill="#FFFFFF" d="M179.4,333.297v41.542h-26.9v-41.542H179.4 M180.4,332.297h-28.9v43.542h28.9V332.297L180.4,332.297z"/>
	</g>
	<g>
		<rect x="180.9" y="332.797" fill="#EDB280" width="27.899" height="42.542"/>
		<g>
			<path fill="#FFFFFF" d="M208.3,333.297v41.542h-26.9v-41.542H208.3 M209.3,332.297h-28.9v43.542h28.9V332.297L209.3,332.297z"/>
		</g>
	</g>
	<g>
		<rect x="209.8" y="332.797" fill="#F4E9E1" width="27.9" height="42.542"/>
		<g>
			<path fill="#FFFFFF" d="M237.2,333.297v41.542h-26.9v-41.542H237.2 M238.2,332.297h-28.9v43.542h28.9V332.297L238.2,332.297z"/>
		</g>
	</g>
	<g>
		<rect x="238.7" y="332.797" fill="#F4E9E1" width="27.899" height="42.542"/>
		<g>
			<path fill="#FFFFFF" d="M266.1,333.297v41.542h-26.9v-41.542H266.1 M267.1,332.297h-28.9v43.542h28.9V332.297L267.1,332.297z"/>
		</g>
	</g>
	<g>
		<rect x="267.6" y="332.797" fill="#F4E9E1" width="27.9" height="42.542"/>
		<g>
			<path fill="#FFFFFF" d="M295,333.297v41.542h-26.9v-41.542H295 M296,332.297h-28.9v43.542H296V332.297L296,332.297z"/>
		</g>
	</g>
	<g>
		<rect x="7.5" y="249.256" fill="#DCEFF4" width="27.9" height="42.542"/>
		<g>
			<path fill="#FFFFFF" d="M34.9,249.756v41.541H8v-41.541H34.9 M35.9,248.756H7v43.541h28.9V248.756L35.9,248.756z"/>
		</g>
	</g>
	<g>
		<rect x="36.4" y="249.256" fill="#DCEFF4" width="27.9" height="42.542"/>
		<g>
			<path fill="#FFFFFF" d="M63.8,249.756v41.541H36.9v-41.541H63.8 M64.8,248.756H35.9v43.541h28.9V248.756L64.8,248.756z"/>
		</g>
	</g>
	<g>
		<rect x="65.3" y="249.256" fill="#DCEFF4" width="27.9" height="42.542"/>
		<g>
			<path fill="#FFFFFF" d="M92.7,249.756v41.541H65.8v-41.541H92.7 M93.7,248.756H64.8v43.541h28.9V248.756L93.7,248.756z"/>
		</g>
	</g>
	<g>
		<rect x="94.2" y="249.256" fill="#DCEFF4" width="27.9" height="42.542"/>
		<g>
			<path fill="#FFFFFF" d="M121.6,249.756v41.541H94.7v-41.541H121.6 M122.6,248.756H93.7v43.541h28.9V248.756L122.6,248.756z"/>
		</g>
	</g>
	<g>
		<rect x="123.1" y="249.256" fill="#44B2CC" width="27.9" height="42.542"/>
		<g>
			<path fill="#FFFFFF" d="M150.5,249.756v41.541h-26.9v-41.541H150.5 M151.5,248.756h-28.9v43.541h28.9V248.756L151.5,248.756z"/>
		</g>
	</g>
	<g>
		<rect x="152" y="249.256" fill="#0087BC" width="27.9" height="42.542"/>
		<path fill="#FFFFFF" d="M179.4,249.756v41.541h-26.9v-41.541H179.4 M180.4,248.756h-28.9v43.541h28.9V248.756L180.4,248.756z"/>
	</g>
	<g>
		<rect x="180.9" y="249.256" fill="#0087BC" width="27.899" height="42.542"/>
		<path fill="#FFFFFF" d="M208.3,249.756v41.541h-26.9v-41.541H208.3 M209.3,248.756h-28.9v43.541h28.9V248.756L209.3,248.756z"/>
	</g>
	<g>
		<rect x="209.8" y="249.256" fill="#0087BC" width="27.9" height="42.542"/>
		<path fill="#FFFFFF" d="M237.2,249.756v41.541h-26.9v-41.541H237.2 M238.2,248.756h-28.9v43.541h28.9V248.756L238.2,248.756z"/>
	</g>
	<g>
		<rect x="238.7" y="249.256" fill="#ABD1DD" width="27.899" height="42.542"/>
		<g>
			<path fill="#FFFFFF" d="M266.1,249.756v41.541h-26.9v-41.541H266.1 M267.1,248.756h-28.9v43.541h28.9V248.756L267.1,248.756z"/>
		</g>
	</g>
	<g>
		<rect x="267.6" y="249.256" fill="#DCEFF4" width="27.9" height="42.542"/>
		<g>
			<path fill="#FFFFFF" d="M295,249.756v41.541h-26.9v-41.541H295 M296,248.756h-28.9v43.541H296V248.756L296,248.756z"/>
		</g>
	</g>
	<g>
		<rect x="7.5" y="163.604" fill="#FCE6E6" width="27.9" height="42.542"/>
		<g>
			<path fill="#FFFFFF" d="M34.9,164.104v41.542H8v-41.542H34.9 M35.9,163.104H7v43.542h28.9V163.104L35.9,163.104z"/>
		</g>
	</g>
	<g>
		<rect x="36.4" y="163.604" fill="#F48282" width="27.9" height="42.542"/>
		<g>
			<path fill="#FFFFFF" d="M63.8,164.104v41.542H36.9v-41.542H63.8 M64.8,163.104H35.9v43.542h28.9V163.104L64.8,163.104z"/>
		</g>
	</g>
	<g>
		<rect x="65.3" y="163.604" fill="#FF0000" width="27.9" height="42.542"/>
		<g>
			<path fill="#FFFFFF" d="M92.7,164.104v41.542H65.8v-41.542H92.7 M93.7,163.104H64.8v43.542h28.9V163.104L93.7,163.104z"/>
		</g>
	</g>
	<g>
		<rect x="94.2" y="163.604" fill="#FF0000" width="27.9" height="42.542"/>
		<path fill="#FFFFFF" d="M121.6,164.104v41.542H94.7v-41.542H121.6 M122.6,163.104H93.7v43.542h28.9V163.104L122.6,163.104z"/>
	</g>
	<g>
		<rect x="123.1" y="163.604" fill="#FF0000" width="27.9" height="42.542"/>
		<g>
			<path fill="#FFFFFF" d="M150.5,164.104v41.542h-26.9v-41.542H150.5 M151.5,163.104h-28.9v43.542h28.9V163.104L151.5,163.104z"/>
		</g>
	</g>
	<g>
		<rect x="152" y="163.604" fill="#FCE6E6" width="27.9" height="42.542"/>
		<g>
			<path fill="#FFFFFF" d="M179.4,164.104v41.542h-26.9v-41.542H179.4 M180.4,163.104h-28.9v43.542h28.9V163.104L180.4,163.104z"/>
		</g>
	</g>
	<g>
		<rect x="180.9" y="163.604" fill="#FCE6E6" width="27.899" height="42.542"/>
		<path fill="#FFFFFF" d="M208.3,164.104v41.542h-26.9v-41.542H208.3 M209.3,163.104h-28.9v43.542h28.9V163.104L209.3,163.104z"/>
	</g>
	<g>
		<rect x="209.8" y="163.604" fill="#FCE6E6" width="27.9" height="42.542"/>
		<path fill="#FFFFFF" d="M237.2,164.104v41.542h-26.9v-41.542H237.2 M238.2,163.104h-28.9v43.542h28.9V163.104L238.2,163.104z"/>
	</g>
	<g>
		<rect x="238.7" y="163.604" fill="#FCE6E6" width="27.899" height="42.542"/>
		<path fill="#FFFFFF" d="M266.1,164.104v41.542h-26.9v-41.542H266.1 M267.1,163.104h-28.9v43.542h28.9V163.104L267.1,163.104z"/>
	</g>
	<g>
		<rect x="267.6" y="163.604" fill="#FCE6E6" width="27.9" height="42.542"/>
		<path fill="#FFFFFF" d="M295,164.104v41.542h-26.9v-41.542H295 M296,163.104h-28.9v43.542H296V163.104L296,163.104z"/>
	</g>
	<line fill="none" stroke="#323232" stroke-miterlimit="10" x1="5" y1="756" x2="297.5" y2="756"/>
</g>
<style type="text/css">
#g-2019_07_Politica-Mesa_de_trabajo_2-img rect, #g-2019_07_Politica-Mesa_de_trabajo_2-img circle, #g-2019_07_Politica-Mesa_de_trabajo_2-img path, #g-2019_07_Politica-Mesa_de_trabajo_2-img line, #g-2019_07_Politica-Mesa_de_trabajo_2-img polyline { vector-effect: non-scaling-stroke; }
</style>
</svg>

