<?xml version="1.0" encoding="utf-8"?>
<!-- Generator: Adobe Illustrator 22.0.1, SVG Export Plug-In . SVG Version: 6.00 Build 0)  -->
<svg version="1.1"
	 id="Capa_1" inkscape:version="0.92.1 r15371" sodipodi:docname="Logotipo_del_PSOE.svg" xmlns:cc="http://creativecommons.org/ns#" xmlns:dc="http://purl.org/dc/elements/1.1/" xmlns:inkscape="http://www.inkscape.org/namespaces/inkscape" xmlns:rdf="http://www.w3.org/1999/02/22-rdf-syntax-ns#" xmlns:sodipodi="http://sodipodi.sourceforge.net/DTD/sodipodi-0.dtd" xmlns:svg="http://www.w3.org/2000/svg"
	 xmlns="http://www.w3.org/2000/svg" xmlns:xlink="http://www.w3.org/1999/xlink" x="0px" y="0px" viewBox="0 0 267.2 267.2"
	 style="enable-background:new 0 0 267.2 267.2;" xml:space="preserve">
<style type="text/css">
	.st0{fill:#FFFFFF;}
</style>
<path class="st0" d="M166,129.6c0.2,3.7,2.8,7.2,8.5,7.2c4.2,0,6.3-2.3,6.3-4.6c0-1.9-1.3-3.5-5.3-4.4l-6.2-1.4
	c-11.5-2.5-16.1-8.9-16.1-16.4c0-9.8,8.7-17.7,20.7-17.7c15.6,0,21.1,9.7,21.6,15.9l-13.7,2.5c-0.4-3.5-2.7-6.6-7.7-6.6
	c-3.1,0-5.9,1.8-5.9,4.6c0,2.3,1.8,3.5,4.2,4l7.2,1.4c11.2,2.3,16.6,8.9,16.6,16.8c0,9.1-7.1,18.1-21.5,18.1
	c-16.9,0-22.4-10.9-22.8-16.8L166,129.6z M68.5,109.3c0-23.7,18.2-39.9,39.7-39.9c23.1,0,33.3,14.7,35.8,25.7l-16.2,5.1
	c-1.2-5.3-6.1-14.2-19.6-14.2c-10.3,0-21.9,7.3-21.9,23.3c0,14.3,10.6,22.6,22.1,22.6c13.3,0,18.7-8.8,20.2-14.3l16.4,4.6
	c-2.5,10.5-12.7,26.7-36.6,26.7C86.3,148.9,68.5,133.1,68.5,109.3 M68.7,163.7l0,53.6c0,0,69.8-53.5,69.9-53.6L68.7,163.7z"/>
</svg>
