<?xml version="1.0" encoding="utf-8"?>
<!-- Generator: Adobe Illustrator 22.0.1, SVG Export Plug-In . SVG Version: 6.00 Build 0)  -->
<svg version="1.1"
	 id="Capa_1" inkscape:version="0.92.1 r15371" sodipodi:docname="Logotipo_del_PSOE.svg" xmlns:cc="http://creativecommons.org/ns#" xmlns:dc="http://purl.org/dc/elements/1.1/" xmlns:inkscape="http://www.inkscape.org/namespaces/inkscape" xmlns:rdf="http://www.w3.org/1999/02/22-rdf-syntax-ns#" xmlns:sodipodi="http://sodipodi.sourceforge.net/DTD/sodipodi-0.dtd" xmlns:svg="http://www.w3.org/2000/svg"
	 xmlns="http://www.w3.org/2000/svg" xmlns:xlink="http://www.w3.org/1999/xlink" x="0px" y="0px" viewBox="0 0 267.2 267.2"
	 style="enable-background:new 0 0 267.2 267.2;" xml:space="preserve">
<style type="text/css">
	.st0{fill:#FFFFFF;}
</style>
<sodipodi:namedview  bordercolor="#666666" borderopacity="1" gridtolerance="10" guidetolerance="10" id="namedview4496" inkscape:current-layer="Capa_1" inkscape:cx="133.91149" inkscape:cy="133.5995" inkscape:pageopacity="0" inkscape:pageshadow="2" inkscape:window-height="1018" inkscape:window-maximized="1" inkscape:window-width="1920" inkscape:window-x="-8" inkscape:window-y="-8" inkscape:zoom="3.1848921" objecttolerance="10" pagecolor="#ffffff" showgrid="false">
	</sodipodi:namedview>
<path class="st0" d="M94.1,148.8H66.4v-10.5h23.7v-11.9H66.4v-10.5h27.7v-11.9H51.9v58h42.2V148.8z M156.2,122.8
	c0-12.9-9-20-21.5-20h-26.6V162H124v-18.4h5.5L142,162h16.5l-14.1-21.3C151.7,137.9,156.2,131.7,156.2,122.8z M133.7,131.7H124
	v-14.5h9.7c5.4,0,7.9,2.9,7.9,7.2S139.5,131.7,133.7,131.7z M195.6,161.9c7.5,0.4,13.4-1,17.4-3.9v-15c-3.9,3.1-8.8,4.7-13.8,4.7
	c-9.5,0-16-6.1-16-16s6.5-16,16-16c5-0.1,9.9,1.6,13.8,4.7v-15c-4.5-2.7-9.7-4-15-3.8c-19.1,0-32,14-30,34.2
	C169.5,149.3,182.1,161.1,195.6,161.9z"/>
</svg>
