<?xml version="1.0" encoding="utf-8"?>
<!-- Generator: Adobe Illustrator 22.0.1, SVG Export Plug-In . SVG Version: 6.00 Build 0)  -->
<svg version="1.1"
	 id="Capa_1" inkscape:version="0.92.1 r15371" sodipodi:docname="Logotipo_del_PSOE.svg" xmlns:cc="http://creativecommons.org/ns#" xmlns:dc="http://purl.org/dc/elements/1.1/" xmlns:inkscape="http://www.inkscape.org/namespaces/inkscape" xmlns:rdf="http://www.w3.org/1999/02/22-rdf-syntax-ns#" xmlns:sodipodi="http://sodipodi.sourceforge.net/DTD/sodipodi-0.dtd" xmlns:svg="http://www.w3.org/2000/svg"
	 xmlns="http://www.w3.org/2000/svg" xmlns:xlink="http://www.w3.org/1999/xlink" x="0px" y="0px" viewBox="0 0 267.2 267.2"
	 style="enable-background:new 0 0 267.2 267.2;" xml:space="preserve">
<style type="text/css">
	.st0{filter:url(#Adobe_OpacityMaskFilter);}
	.st1{fill:#FFFFFF;}
	.st2{mask:url(#mask-2_1_);}
</style>
<sodipodi:namedview  bordercolor="#666666" borderopacity="1" gridtolerance="10" guidetolerance="10" id="namedview4496" inkscape:current-layer="Capa_1" inkscape:cx="133.91149" inkscape:cy="133.5995" inkscape:pageopacity="0" inkscape:pageshadow="2" inkscape:window-height="1018" inkscape:window-maximized="1" inkscape:window-width="1920" inkscape:window-x="-8" inkscape:window-y="-8" inkscape:zoom="3.1848921" objecttolerance="10" pagecolor="#ffffff" showgrid="false">
	</sodipodi:namedview>
<g id="NEW">
	<g id="Artboard-Copy-18" transform="translate(-50 -8)">
		<g id="junts-cat-01" transform="translate(50 1)">
			<defs>
				<filter id="Adobe_OpacityMaskFilter" filterUnits="userSpaceOnUse" x="38.8" y="48.1" width="189.7" height="187">
					<feColorMatrix  type="matrix" values="1 0 0 0 0  0 1 0 0 0  0 0 1 0 0  0 0 0 1 0"/>
				</filter>
			</defs>
			<mask maskUnits="userSpaceOnUse" x="38.8" y="48.1" width="189.7" height="187" id="mask-2_1_">
				<g class="st0">
					<path id="path-1_1_" class="st1" d="M38.8,29.1h189.7v176.1H38.8V29.1z"/>
				</g>
			</mask>
			<g id="Shape" class="st2">
				<path class="st1" d="M109.6,235.1v-54.9c0-0.4,0.3-0.8,0.7-0.9l6.6-1.7c0.5-0.1,1,0.2,1.1,0.6c0,0.1,0,0.2,0,0.2v56.5H109.6z
					 M122.1,235.1v-58c0-0.4,0.3-0.8,0.7-0.9l6.6-1.7c0.3-0.1,0.6,0,0.8,0.2c0.2,0.2,0.3,0.4,0.3,0.7v59.7H122.1z M133.6,235.1V175
					c0-0.4,0.3-0.8,0.7-0.9l6.6-1.6c0.5-0.1,1,0.1,1.1,0.6c0,0.1,0,0.2,0,0.2v61.8H133.6z M146.1,235.1v-63.3c0-0.4,0.3-0.8,0.7-0.9
					l6.6-1.7c0.3-0.1,0.5,0,0.8,0.2c0.2,0.2,0.3,0.4,0.3,0.7v64.9C154.4,235.1,146.1,235.1,146.1,235.1z"/>
				<path class="st1" d="M59.1,109.7c0.5-0.1,1,0,1.4,0.3c0.4,0.3,0.7,0.8,0.7,1.3v7.1c0,2,0.4,2.9,1.9,2.5h0.3
					c1.5-0.4,1.8-1.8,1.8-3.5V75c0-0.7,0.5-1.4,1.2-1.5l4.7-1.3c0.5-0.1,1,0,1.4,0.3c0.4,0.3,0.7,0.8,0.7,1.3v42.1
					c0,7.1-3.4,11.2-9,12.7l-2.2,0.6c-5.1,1.4-8.7-0.1-8.7-7.5v-9.2c0-0.7,0.5-1.4,1.2-1.5C54.6,110.9,59.1,109.7,59.1,109.7z
					 M77.5,70.6l4.6-1.2c0.9-0.2,1.8,0.3,2,1.2c0,0.1,0,0.2,0.1,0.4v40.6c0,2.3,0.8,3.6,2.5,3.2c1.7-0.5,2.5-2.1,2.5-4.5V68.7
					c0-0.7,0.5-1.3,1.2-1.5l4.6-1.2c0.9-0.2,1.8,0.3,2,1.2c0,0.1,0,0.2,0.1,0.4v40c0,7.6-2.9,13.2-9.8,15l-1.4,0.4
					c-6.9,1.8-9.7-2-9.7-9.8V72.2C76.3,71.4,76.8,70.8,77.5,70.6L77.5,70.6z M108.8,64.4l5.3,21.4c0.1,0.3,0.3,0.4,0.6,0.4
					c0.2-0.1,0.4-0.3,0.4-0.5V62.3c0-0.7,0.5-1.3,1.2-1.5l3.8-1.1c0.9-0.2,1.8,0.3,2,1.2c0,0.1,0,0.2,0.1,0.4v50.6
					c0,0.7-0.5,1.3-1.2,1.5l-3.5,1c-0.9,0.2-1.8-0.3-2-1.2c0,0,0,0,0,0l-6.1-23.5c-0.1-0.3-0.3-0.4-0.6-0.4
					c-0.2,0.1-0.4,0.3-0.4,0.5v25.7c0,0.7-0.5,1.4-1.2,1.5l-3.8,1c-0.9,0.2-1.8-0.3-2-1.2c0-0.1,0-0.2-0.1-0.4V65.9
					c0-0.7,0.5-1.4,1.2-1.5l4.2-1.1C107.6,63,108.5,63.5,108.8,64.4C108.8,64.4,108.8,64.4,108.8,64.4L108.8,64.4z M145.1,54.9v4.5
					c0,0.7-0.5,1.4-1.2,1.6l-5,1.3c-0.2,0.1-0.4,0.3-0.4,0.5V108c0,0.7-0.5,1.4-1.2,1.6l-4.5,1.2c-0.5,0.1-1,0-1.4-0.3
					c-0.4-0.3-0.6-0.8-0.7-1.3V65.3c0-0.2-0.1-0.3-0.2-0.4c-0.1-0.1-0.3-0.1-0.4-0.1l-3.9,1c-0.5,0.1-1,0-1.4-0.3
					c-0.4-0.3-0.6-0.8-0.7-1.3v-4.5c0-0.7,0.5-1.4,1.2-1.6l17.6-4.8c0.5-0.1,1,0,1.4,0.3C144.8,54,145,54.4,145.1,54.9L145.1,54.9z
					 M157.5,48.7c6.3-1.7,8.8,0.6,8.8,7v5.6c0,0.7-0.5,1.3-1.2,1.5l-4.2,1.2c-0.5,0.1-1,0-1.4-0.3c-0.4-0.3-0.6-0.8-0.6-1.3v-3.6
					c0-1.8-0.3-3.1-2.2-2.6c-1.8,0.5-2.2,1.8-2.2,4.4v1c0,3.1,0.5,4.6,3.1,7.4l4.9,5.4c3.5,3.8,4.6,6.2,4.6,12.3v1.7
					c0,7.9-3.1,13.4-9.9,15.3l-1.5,0.4c-6.2,1.7-9.4-1-9.4-7.7v-6.2c0-0.7,0.5-1.3,1.2-1.5l4.4-1.2c0.5-0.1,1,0,1.4,0.3
					c0.4,0.3,0.6,0.8,0.6,1.3v4c0,2.5,0.8,3.5,2.5,3.1c1.7-0.5,2.5-1.9,2.5-5.3v-1.2c0-3.9-0.3-5-3.1-8.2l-4.9-5.3
					c-3.3-3.6-4.2-6.8-4.2-12.2v-1.7c0-7.2,3.4-11.4,9.4-13.1L157.5,48.7L157.5,48.7z M177.6,84.3v12c0,0.7-0.5,1.3-1.2,1.6
					l-1.2,0.3c-0.5,0.1-1,0-1.4-0.3c-0.4-0.3-0.6-0.8-0.6-1.3V68.2c0-0.7,0.5-1.3,1.2-1.6l5.8-1.6c3.1-0.9,4.5,0.2,4.5,4v7.5
					c0,3.8-1.5,6.2-4.5,7.1L177.6,84.3L177.6,84.3z M177.6,79.8l1.1-0.3c1.4-0.4,1.5-1.4,1.5-2.7v-5.2c0-1.2-0.2-2.1-1.5-1.8
					l-1.1,0.3L177.6,79.8L177.6,79.8z M198,63.3v1.2c0,0.7-0.5,1.4-1.2,1.6l-4.6,1.2v8.4l2.4-0.7c0.5-0.1,1,0,1.4,0.3
					c0.4,0.3,0.6,0.8,0.6,1.3V78c0,0.7-0.5,1.4-1.2,1.6l-3.3,0.9v9.2l3.9-1.1c0.5-0.1,1,0,1.4,0.3c0.4,0.3,0.6,0.8,0.6,1.3v1.4
					c0,0.7-0.5,1.4-1.2,1.6l-7.2,2c-0.5,0.1-1,0-1.4-0.3c-0.4-0.3-0.6-0.8-0.6-1.3V65.2c0-0.7,0.5-1.4,1.2-1.6l7-1.9
					c0.5-0.1,1-0.1,1.4,0.3C197.8,62.3,198,62.8,198,63.3L198,63.3z M203.5,90.5l-1.2,0.3c-0.5,0.1-1,0-1.3-0.3
					c-0.4-0.3-0.6-0.8-0.6-1.3V61c0-0.7,0.5-1.3,1.2-1.5l5.9-1.7c3-0.8,4.4,0.1,4.4,3.7v5.6c0.2,1.8-0.5,3.5-1.9,4.7
					c1,0.2,1.9,0.7,1.9,2.9v12.2c0,0.9-0.6,1.6-1.4,1.9l-1,0.3c-0.5,0.1-1,0-1.3-0.3c-0.4-0.3-0.6-0.8-0.6-1.3V77.3
					c0-1.4-0.2-1.9-1.6-1.6l-1.1,0.3v12.9C204.7,89.7,204.2,90.3,203.5,90.5L203.5,90.5z M204.7,71.6l1.2-0.3
					c1.2-0.3,1.6-1.3,1.6-2.7v-4.4c0-1.4-0.2-2-1.6-1.5l-1.2,0.3C204.7,62.9,204.7,71.6,204.7,71.6z M53,172.2l4.4-1.2
					c0.5-0.1,1,0,1.4,0.3c0.4,0.3,0.6,0.8,0.7,1.3v4.6c0,5.8-1.9,12.2-9.4,14.2l-1.7,0.5c-8,2.1-9.7-3.4-9.7-8.8v-32.8
					c0-5.5,2.3-11.4,9.4-13.3l1.8-0.5c8.6-2.3,9.7,3.4,9.7,8.7v4.3c0,0.7-0.5,1.4-1.2,1.5l-4.5,1.3c-0.5,0.1-1,0-1.4-0.3
					c-0.4-0.3-0.6-0.8-0.7-1.3v-3.4c0-2.3-0.7-3.4-2.7-2.8c-2,0.5-2.4,1.8-2.4,4.2v32c0,2.5,0.8,3.5,2.5,3.1
					c1.9-0.5,2.6-2.1,2.6-4.3v-5.7C51.8,173,52.3,172.4,53,172.2L53,172.2z M73.5,174.9l-4.8,1.3c-0.2,0.1-0.4,0.2-0.4,0.4l-0.8,9
					c-0.1,0.7-0.5,1.2-1.2,1.4l-3.6,1c-0.9,0.2-1.8-0.3-2-1.2c0-0.2-0.1-0.4,0-0.6l5.9-52.5c0.1-0.7,0.6-1.2,1.2-1.4l6.4-1.7
					c0.9-0.2,1.8,0.3,2,1.2c0,0.1,0,0.1,0,0.2l6.3,49.2c0.1,0.8-0.4,1.6-1.2,1.8l-4.3,1.2c-0.9,0.2-1.8-0.3-2-1.2c0-0.1,0-0.1,0-0.2
					l-0.8-7.4C74.2,175.1,73.9,174.9,73.5,174.9C73.6,174.9,73.6,174.9,73.5,174.9L73.5,174.9z M69.9,167.8l2.9-0.8
					c0.2-0.1,0.4-0.3,0.4-0.5l-1.6-14.1c0-0.3-0.2-0.5-0.5-0.5s-0.5,0.2-0.5,0.5l-1.4,14.9c0,0.3,0.2,0.5,0.4,0.6
					C69.7,167.8,69.8,167.8,69.9,167.8L69.9,167.8L69.9,167.8z M100.2,126v4.5c0,0.7-0.5,1.4-1.2,1.6l-5,1.3
					c-0.2,0.1-0.4,0.3-0.4,0.5V179c0,0.7-0.5,1.4-1.2,1.6l-4.5,1.2c-0.5,0.1-1,0-1.4-0.3c-0.4-0.3-0.6-0.8-0.7-1.3v-43.9
					c0-0.2-0.1-0.4-0.2-0.5c-0.1-0.1-0.3-0.1-0.5,0l-3.8,1c-0.5,0.1-1,0-1.4-0.3c-0.4-0.3-0.6-0.8-0.7-1.3v-4.5
					c0-0.7,0.5-1.4,1.2-1.6l17.5-4.8c0.5-0.1,1-0.1,1.4,0.2C100,125,100.2,125.5,100.2,126z M112.1,164.5l-4.8,1.3
					c-0.2,0.1-0.4,0.2-0.4,0.4l-0.8,9c-0.1,0.7-0.5,1.2-1.2,1.4l-3.6,1c-0.9,0.2-1.8-0.3-2-1.2c0-0.2-0.1-0.4,0-0.6l5.9-52.5
					c0.1-0.7,0.6-1.2,1.2-1.4l6.4-1.7c0.9-0.2,1.8,0.3,2,1.2c0,0.1,0,0.1,0,0.2l6.3,49.2c0.1,0.8-0.4,1.6-1.2,1.8l-4.3,1.2
					c-0.9,0.2-1.8-0.3-2-1.2c0-0.1,0-0.2,0-0.2l-0.8-7.4c0-0.3-0.3-0.5-0.6-0.5C112.2,164.5,112.1,164.5,112.1,164.5z M108.5,157.3
					l2.9-0.8c0.2-0.1,0.4-0.3,0.4-0.5l-1.6-14.1c0-0.3-0.2-0.5-0.5-0.5c-0.3,0-0.5,0.2-0.5,0.5l-1.4,14.9c0,0.3,0.2,0.5,0.4,0.6
					C108.3,157.4,108.4,157.4,108.5,157.3z M130.1,117.6v43.1c0,0.2,0.1,0.3,0.2,0.4c0.1,0.1,0.3,0.1,0.5,0.1l7-1.8
					c0.5-0.1,1,0,1.4,0.3c0.4,0.3,0.7,0.8,0.7,1.3v5c0,0.7-0.5,1.4-1.2,1.5l-14.4,3.8c-0.5,0.1-1,0-1.4-0.3
					c-0.4-0.3-0.7-0.8-0.7-1.3v-50.9c0-0.7,0.5-1.4,1.2-1.6l4.6-1.2c0.5-0.1,1,0,1.4,0.3C129.8,116.6,130.1,117.1,130.1,117.6
					L130.1,117.6z M142,112.3l4.7-1.2c0.5-0.1,1,0,1.4,0.3c0.4,0.3,0.6,0.8,0.7,1.3v40.6c0,2.3,0.8,3.6,2.5,3.2
					c1.7-0.5,2.6-2.1,2.6-4.5v-41.4c0-0.7,0.5-1.4,1.2-1.5l4.6-1.2c0.5-0.1,1,0,1.4,0.3c0.4,0.3,0.6,0.8,0.7,1.3v40
					c0,7.6-2.9,13.2-9.8,15l-1.3,0.4c-6.9,1.8-9.8-2-9.8-9.8V114C140.9,113.2,141.3,112.6,142,112.3L142,112.3z M171.3,106.2
					l5.3,21.4c0.1,0.3,0.3,0.4,0.6,0.4c0.2-0.1,0.4-0.3,0.4-0.5V104c0-0.7,0.5-1.3,1.2-1.5l3.8-1c0.9-0.3,1.8,0.2,2,1.1
					c0,0.1,0.1,0.3,0.1,0.4v50.6c0,0.7-0.5,1.4-1.2,1.5l-3.5,1c-0.9,0.2-1.8-0.3-2-1.2c0,0,0,0,0,0l-6.1-23.5
					c-0.1-0.3-0.3-0.4-0.6-0.4c-0.2,0.1-0.4,0.3-0.4,0.5v25.8c0,0.7-0.5,1.4-1.2,1.5l-3.8,1c-0.9,0.2-1.8-0.3-2-1.2
					c0-0.1,0-0.2-0.1-0.4v-50.6c0-0.7,0.5-1.3,1.2-1.5l4.2-1.2C170.1,104.8,171,105.3,171.3,106.2
					C171.2,106.2,171.2,106.2,171.3,106.2z M200.2,128.3v21.4c0,0.7-0.5,1.4-1.2,1.6l-4.5,1.2c-0.5,0.1-1,0-1.4-0.3
					c-0.4-0.3-0.6-0.8-0.7-1.3v-20.6l-6.7-28.4c-0.2-0.9,0.3-1.7,1.2-2l4.4-1.2c0.4-0.1,0.9,0,1.3,0.2c0.4,0.2,0.6,0.6,0.7,1.1
					l2.7,14.8c0,0.2,0.3,0.4,0.5,0.4c0.2,0,0.5-0.2,0.5-0.4l2.8-17.4c0.1-0.6,0.6-1.2,1.2-1.3l3.5-0.9c0.5-0.1,1.1,0,1.5,0.4
					c0.4,0.4,0.6,1,0.5,1.5C206.5,97.1,200.2,128.3,200.2,128.3z M219.4,135.2l-4.8,1.3c-0.2,0.1-0.4,0.2-0.4,0.4l-0.8,9
					c-0.1,0.7-0.5,1.2-1.2,1.4l-3.6,1c-0.9,0.2-1.8-0.3-2-1.2c0-0.2-0.1-0.4,0-0.6l5.9-52.5c0.1-0.7,0.6-1.2,1.2-1.4l6.4-1.7
					c0.9-0.2,1.8,0.3,2,1.2c0,0.1,0,0.1,0,0.2l6.3,49.2c0.1,0.8-0.4,1.6-1.2,1.8l-4.3,1.2c-0.9,0.2-1.8-0.3-2-1.2c0-0.1,0-0.1,0-0.2
					l-0.8-7.4C220.1,135.4,219.8,135.2,219.4,135.2C219.5,135.2,219.5,135.2,219.4,135.2L219.4,135.2z M215.8,128.1l3-0.8
					c0.2-0.1,0.4-0.3,0.4-0.5l-1.6-14.1c0-0.3-0.2-0.5-0.5-0.5c-0.3,0-0.5,0.2-0.5,0.5l-1.4,14.9c0,0.3,0.2,0.5,0.4,0.6
					C215.6,128.1,215.7,128.1,215.8,128.1L215.8,128.1L215.8,128.1z"/>
			</g>
		</g>
	</g>
</g>
</svg>
