<?xml version="1.0" encoding="utf-8"?>
<!-- Generator: Adobe Illustrator 22.0.1, SVG Export Plug-In . SVG Version: 6.00 Build 0)  -->
<svg version="1.1"
	 id="Capa_1" inkscape:version="0.92.1 r15371" sodipodi:docname="Logotipo_del_PSOE.svg" xmlns:cc="http://creativecommons.org/ns#" xmlns:dc="http://purl.org/dc/elements/1.1/" xmlns:inkscape="http://www.inkscape.org/namespaces/inkscape" xmlns:rdf="http://www.w3.org/1999/02/22-rdf-syntax-ns#" xmlns:sodipodi="http://sodipodi.sourceforge.net/DTD/sodipodi-0.dtd" xmlns:svg="http://www.w3.org/2000/svg"
	 xmlns="http://www.w3.org/2000/svg" xmlns:xlink="http://www.w3.org/1999/xlink" x="0px" y="0px" viewBox="0 0 267.2 267.2"
	 style="enable-background:new 0 0 267.2 267.2;" xml:space="preserve">
<sodipodi:namedview  bordercolor="#666666" borderopacity="1" gridtolerance="10" guidetolerance="10" id="namedview4496" inkscape:current-layer="Capa_1" inkscape:cx="133.91149" inkscape:cy="133.5995" inkscape:pageopacity="0" inkscape:pageshadow="2" inkscape:window-height="1018" inkscape:window-maximized="1" inkscape:window-width="1920" inkscape:window-x="-8" inkscape:window-y="-8" inkscape:zoom="3.1848921" objecttolerance="10" pagecolor="#ffffff" showgrid="false">
	</sodipodi:namedview>
<g>
	<defs>
		<path id="SVGID_1_" d="M190,150.7h7.9c5.1,0,8.3,2.5,8.3,7.1v0.1c0,4-3,7.1-8.1,7.1H190V150.7z M184.8,141.4
			c-2.9,0-5.1,2.3-5.1,5.1v36.7c0,2.9,2.3,5.1,5.1,5.1c2.9,0,5.1-2.3,5.1-5.1V174h7.8c10.4,0,18.8-5.6,18.8-16.4v-0.1
			c0-9.5-6.7-16.1-17.8-16.1H184.8z M95.9,113.7l2.7-3c6.4-7.1,12-10.7,16.6-10.7c11.6,0,18,9.5,18,16.1c0,18.4-23.9,37.8-37,47.4
			c0,0,0,0,0,0c-0.2,0.1-0.5,0.3-0.8,0.6c-0.2,0.2-0.5,0.3-0.7,0.5c-0.9,0.7-2,1.3-2.7,1.3c-1.2,0-3.2-1.8-4.2-2.4c0,0,0,0,0,0
			c-10.3-7.7-18-14.4-24-21.1c-8.6-9.6-13-18.5-13-26.3c0-6.6,6.4-16.1,18-16.1c4.6,0,10.2,3.6,16.6,10.7l2.7,3
			c0.5,0.6,1.9,2.1,4,2.1C94,115.9,95.4,114.4,95.9,113.7 M95.5,105.3c-0.3,0.4-0.7,0.7-1,1.1c-0.8,0.8-1.8,1.7-2.5,1.7
			c-0.8,0-1.7-0.8-2.5-1.7c-0.3-0.4-0.7-0.7-1-1.1c-0.2-0.2-0.4-0.4-0.5-0.5c0,0,0,0,0,0C81,97.6,74.7,94.1,68.7,94.1
			c-6.9,0-13.2,2.7-17.8,7.6c-3.9,4.2-6.2,9.6-6.2,14.5c0,9.3,4.9,19.5,14.5,30.3c7.2,8,16.7,16.2,30,25.6c0.6,0.5,1.6,1,2.7,1
			c0.5,0,1.3-0.1,2.6-0.9l0.1,0c11-7.8,44.6-31.7,44.6-55.9c0-4.9-2.3-10.4-6.2-14.5c-4.6-4.9-10.9-7.6-17.8-7.6
			C109,94.1,102.6,97.8,95.5,105.3 M95.5,90.8c-0.3,0.3-0.7,0.5-1,0.8c-0.8,0.6-1.8,1.2-2.6,1.2c-0.9,0-1.9-0.7-2.8-1.4
			c-0.1-0.1-0.1-0.1-0.2-0.2c-6.8-5.3-13.4-7.9-20.2-7.9c-9.9,0-18.9,3.9-25.6,11c-5.7,6.1-9.1,14.3-9.1,21.8
			c0,12.1,5.8,24.7,17.3,37.5c7.7,8.6,17.8,17.2,31.6,27.1c1.9,1.4,5,3.1,9,3.1c3,0,5.8-0.9,8.6-2.8l0.3-0.2
			c7.5-5.3,13.5-10,18.9-14.7c1.3-1.1,1.4-3,0.3-4.2c-1.1-1.3-3-1.4-4.2-0.3c-5.3,4.6-11.1,9.1-18.4,14.3l-0.2,0.1
			c-1.8,1.2-3.4,1.8-5.2,1.8c-2.4,0-4.3-1-5.5-1.9l0,0c-13.5-9.6-23.2-17.9-30.7-26.2C45.3,138,40,126.7,40,116.2
			c0-6.1,2.8-12.7,7.5-17.7c5.5-5.8,13-9.1,21.2-9.1c6.4,0,12.9,3,19.7,9.3l0.2,0.2c0.5,0.4,1.8,1.2,3.3,1.2c1.6,0,2.8-0.8,3.1-1.1
			l0.2-0.2c6.9-6.4,13.4-9.4,19.9-9.4c8.2,0,15.7,3.2,21.2,9.1c4.7,5,7.5,11.7,7.5,17.7c0,1.7,1.3,3,3,3c1.7,0,3-1.3,3-3
			c0-7.6-3.4-15.7-9.1-21.8c-6.6-7.1-15.7-11-25.6-11C108.5,83.4,102.1,85.8,95.5,90.8 M210.1,83.8v22c0,7.4-3.8,11.2-10.1,11.2
			c-6.3,0-10.1-3.9-10.1-11.5V83.8c0-2.9-2.3-5.1-5.1-5.1c-2.9,0-5.1,2.3-5.1,5.1v21.9c0,13.7,7.7,20.7,20.2,20.7
			c12.5,0,20.4-6.9,20.4-21V83.8c0-2.9-2.3-5.1-5.1-5.1C212.3,78.7,210.1,81,210.1,83.8 M95.1,78.2c-0.1,0-0.1,0.1-0.2,0.1
			c-1.1,0.6-2.3,1.2-3,1.2c-0.7,0-1.9-0.6-3-1.2c-0.1-0.1-0.2-0.1-0.3-0.2c-6.5-3.7-13-5.5-19.9-5.5C55.8,72.7,44,77.8,35.3,87
			c-0.5,0.6-1.1,1.2-1.6,1.8c-1.1,1.3-0.9,3.2,0.4,4.2c1.3,1.1,3.2,0.9,4.2-0.4c0.4-0.5,0.9-1.1,1.4-1.6c7.5-8,17.8-12.4,29-12.4
			c6.7,0,13.2,2.1,19.6,6.3c2,1.5,2.9,1.7,3.6,1.7c0.7,0,1.6-0.1,3.6-1.7c6.4-4.3,12.9-6.3,19.6-6.3c11.2,0,21.5,4.4,29,12.4
			c6.6,7.1,10.4,16.2,10.4,25.1c0,13.1-6.1,26.7-18.2,40.2c-10.5,11.8-23.8,21.8-32.9,28.3l-0.4,0.3c-3.5,2.4-7.3,3.6-11.2,3.6
			c-4.2,0-8.2-1.4-11.8-4l0,0c-14.1-10.1-24.4-18.9-32.4-27.7c-2.5-2.8-4.7-5.6-6.7-8.3c-1-1.3-2.8-1.7-4.2-0.7
			c-1.3,1-1.7,2.8-0.7,4.2c2.1,2.9,4.5,5.9,7.1,8.8c8.3,9.2,18.8,18.3,33.3,28.6c4.6,3.3,9.8,5.1,15.3,5.1c5.1,0,10-1.5,14.6-4.6
			l0.5-0.4c9.3-6.6,23-16.9,33.9-29.2c13-14.7,19.7-29.6,19.7-44.2c0-10.4-4.4-21-12-29.2c-8.7-9.2-20.5-14.3-33.4-14.3
			C108.2,72.7,101.6,74.5,95.1,78.2"/>
	</defs>
	<use xlink:href="#SVGID_1_"  style="overflow:visible;fill:#FFFFFF;"/>
	<clipPath id="SVGID_2_">
		<use xlink:href="#SVGID_1_"  style="overflow:visible;"/>
	</clipPath>
</g>
</svg>
