<?xml version="1.0" encoding="utf-8"?>
<!-- Generator: Adobe Illustrator 22.0.1, SVG Export Plug-In . SVG Version: 6.00 Build 0)  -->
<svg version="1.1"
	 id="Capa_1" inkscape:version="0.92.1 r15371" sodipodi:docname="Logotipo_del_PSOE.svg" xmlns:cc="http://creativecommons.org/ns#" xmlns:dc="http://purl.org/dc/elements/1.1/" xmlns:inkscape="http://www.inkscape.org/namespaces/inkscape" xmlns:rdf="http://www.w3.org/1999/02/22-rdf-syntax-ns#" xmlns:sodipodi="http://sodipodi.sourceforge.net/DTD/sodipodi-0.dtd" xmlns:svg="http://www.w3.org/2000/svg"
	 xmlns="http://www.w3.org/2000/svg" xmlns:xlink="http://www.w3.org/1999/xlink" x="0px" y="0px" viewBox="0 0 267.2 267.2"
	 style="enable-background:new 0 0 267.2 267.2;" xml:space="preserve">
<style type="text/css">
	.st0{fill:#FFFFFF;}
</style>
<sodipodi:namedview  bordercolor="#666666" borderopacity="1" gridtolerance="10" guidetolerance="10" id="namedview4496" inkscape:current-layer="Capa_1" inkscape:cx="133.91149" inkscape:cy="133.5995" inkscape:pageopacity="0" inkscape:pageshadow="2" inkscape:window-height="1018" inkscape:window-maximized="1" inkscape:window-width="1920" inkscape:window-x="-8" inkscape:window-y="-8" inkscape:zoom="3.1848921" objecttolerance="10" pagecolor="#ffffff" showgrid="false">
	</sodipodi:namedview>
<g>
	<path class="st0" d="M28.4,127c0-12.9,7.3-20.2,17.9-20.2c10.6,0,17.9,7.4,17.9,20.2c0,12.9-7.2,20.6-17.9,20.6
		C35.7,147.6,28.4,139.9,28.4,127z M55,127c0-7.9-3.4-12.6-8.8-12.6c-5.3,0-8.8,4.7-8.8,12.6c0,7.9,3.4,12.9,8.8,12.9
		C51.6,139.9,55,134.9,55,127z"/>
	<path class="st0" d="M79.5,115H68.7v-7.5h30.6v7.5H88.4v31.9h-8.9V115z"/>
	<path class="st0" d="M128.2,146.9l-7.6-14.2h-4.8v14.2h-8.9v-39.4H121c8.3,0,15.2,2.9,15.2,12.3c0,5.8-2.8,9.5-7,11.4l8.9,15.8
		H128.2z M115.8,125.6h4.5c4.7,0,7.2-2,7.2-5.9s-2.5-5.2-7.2-5.2h-4.5V125.6z"/>
	<path class="st0" d="M143.6,127c0-12.9,7.3-20.2,17.9-20.2c10.6,0,17.9,7.4,17.9,20.2c0,12.9-7.2,20.6-17.9,20.6
		C150.9,147.6,143.6,139.9,143.6,127z M170.3,127c0-7.9-3.4-12.6-8.8-12.6c-5.3,0-8.8,4.7-8.8,12.6c0,7.9,3.4,12.9,8.8,12.9
		C166.9,139.9,170.3,134.9,170.3,127z"/>
	<path class="st0" d="M190.9,135.8c2.8,2.4,6.4,4.1,9.7,4.1c3.7,0,5.5-1.4,5.5-3.8c0-2.5-2.2-3.3-5.7-4.7l-5.1-2.2
		c-4.1-1.6-8-5-8-10.8c0-6.5,5.9-11.7,14-11.7c4.5,0,9.3,1.8,12.7,5.2l-4.5,5.6c-2.6-2-5.1-3.1-8.2-3.1c-3,0-5,1.3-5,3.6
		c0,2.4,2.6,3.3,6,4.7l5,2.1c4.8,1.9,7.8,5.1,7.8,10.7c0,6.5-5.4,12.2-14.8,12.2c-5.1,0-10.6-1.9-14.6-5.7L190.9,135.8z"/>
	<path class="st0" d="M223.2,123.2l3.6-6.3l-6.5-3l1.4-4.3l7,1.4l0.8-7.1h4.7l0.8,7.2l6.9-1.5l1.5,4.3l-6.5,3l3.6,6.3l-3.7,2.7
		l-4.8-5.4l-4.9,5.4L223.2,123.2z"/>
</g>
</svg>
