<?xml version="1.0" encoding="utf-8"?>
<!-- Generator: Adobe Illustrator 22.0.1, SVG Export Plug-In . SVG Version: 6.00 Build 0)  -->
<svg version="1.1"
	 id="Capa_1" inkscape:version="0.92.1 r15371" sodipodi:docname="Logotipo_del_PSOE.svg" xmlns:cc="http://creativecommons.org/ns#" xmlns:dc="http://purl.org/dc/elements/1.1/" xmlns:inkscape="http://www.inkscape.org/namespaces/inkscape" xmlns:rdf="http://www.w3.org/1999/02/22-rdf-syntax-ns#" xmlns:sodipodi="http://sodipodi.sourceforge.net/DTD/sodipodi-0.dtd" xmlns:svg="http://www.w3.org/2000/svg"
	 xmlns="http://www.w3.org/2000/svg" xmlns:xlink="http://www.w3.org/1999/xlink" x="0px" y="0px" viewBox="0 0 267.2 267.2"
	 style="enable-background:new 0 0 267.2 267.2;" xml:space="preserve">
<style type="text/css">
	.st0{fill:#FFFFFF;}
</style>
<sodipodi:namedview  bordercolor="#666666" borderopacity="1" gridtolerance="10" guidetolerance="10" id="namedview4496" inkscape:current-layer="Capa_1" inkscape:cx="133.91149" inkscape:cy="133.5995" inkscape:pageopacity="0" inkscape:pageshadow="2" inkscape:window-height="1018" inkscape:window-maximized="1" inkscape:window-width="1920" inkscape:window-x="-8" inkscape:window-y="-8" inkscape:zoom="3.1848921" objecttolerance="10" pagecolor="#ffffff" showgrid="false">
	</sodipodi:namedview>
<g id="surface1">
	<path class="st0" d="M57.3,105.6c6.4-6.5,16-9.3,25-8.2c5.9,0.7,11.8,3.4,15.4,8.3c3.4,4.5,4.5,10.2,4.7,15.7c-5.7,0-11.3,0-17,0
		c-0.2-3.1-1-6.6-3.9-8.3c-4.1-2.2-9.6-1.1-12.5,2.5c-3.6,4.3-4.7,10.1-5,15.6c-0.2,4.6,0,9.5,2.7,13.4c2.7,3.8,8.5,3.8,11.9,1
		c2.6-2.1,3.6-5.4,4.5-8.5c5.7,0,11.4,0,17,0c-1.4,7.2-4.3,14.5-10,19.3c-6.6,5.6-15.8,6.9-24.1,5.5c-6-1-11.8-4.3-15.2-9.4
		c-3.9-5.7-4.8-13-4.4-19.8C46.9,122.8,50.2,112.6,57.3,105.6z"/>
	<path class="st0" d="M192.9,98.1c6.3-2.1,13.9-1,18.6,4c5.4,5.8,6.8,14.1,6.9,21.8c-0.1,11-3.1,22.6-10.7,30.9
		c-5.5,6.1-14.4,9.1-22.4,7c-4.8-1.1-8.3-5-10.3-9.3c-1.9,10.6-3.8,21.3-5.7,31.9c-5.9,0-11.7,0-17.6,0c5.1-28.5,10.3-57,15.5-85.5
		c5.7,0,11.4,0,17.1,0c-0.4,2.5-0.9,5-1.3,7.5C185.6,102.9,188.7,99.5,192.9,98.1 M187.9,113.4c-5.2,2.5-7.4,8.5-8.6,13.8
		c-1,5.3-1.7,11.3,1.2,16.1c1.7,2.9,5.4,4.1,8.6,3.5c3.5-0.5,6.3-3.1,8-6.1c2.7-4.9,3.7-10.5,3.7-16c-0.1-3.2-0.5-6.7-2.5-9.3
		C195.9,112.4,191.3,112,187.9,113.4z"/>
	<path class="st0" d="M109.2,98.9c5.9,0,11.7,0,17.6,0c-1.9,10.5-3.8,21.1-5.6,31.6c-0.6,3.6-1.3,7.2-1.1,10.9
		c0.1,2.4,1.5,4.8,3.9,5.3c3.7,0.9,7.8-0.7,10.1-3.7c2.2-3,3.2-6.7,3.9-10.3c2.1-11.3,4.2-22.5,6.3-33.8c5.9,0,11.7,0,17.6,0
		c-3.8,20.6-7.6,41.2-11.4,61.7c-5.6,0-11.2,0-16.9,0c0.5-2.9,1.1-5.8,1.6-8.6c-2.5,3.8-5.7,7.4-10.1,9c-5.1,2-11.3,2.1-16.2-0.5
		c-4.1-2.2-6.5-6.6-7.2-11c-0.8-4.6,0.1-9.3,0.9-13.8C104.7,123.4,107,111.2,109.2,98.9z"/>
</g>
</svg>
