<?xml version="1.0" encoding="utf-8"?>
<!-- Generator: Adobe Illustrator 22.0.1, SVG Export Plug-In . SVG Version: 6.00 Build 0)  -->
<svg version="1.1"
	 id="Capa_1" inkscape:version="0.92.1 r15371" sodipodi:docname="Logotipo_del_PSOE.svg" xmlns:cc="http://creativecommons.org/ns#" xmlns:dc="http://purl.org/dc/elements/1.1/" xmlns:inkscape="http://www.inkscape.org/namespaces/inkscape" xmlns:rdf="http://www.w3.org/1999/02/22-rdf-syntax-ns#" xmlns:sodipodi="http://sodipodi.sourceforge.net/DTD/sodipodi-0.dtd" xmlns:svg="http://www.w3.org/2000/svg"
	 xmlns="http://www.w3.org/2000/svg" xmlns:xlink="http://www.w3.org/1999/xlink" x="0px" y="0px" viewBox="0 0 267.2 267.2"
	 style="enable-background:new 0 0 267.2 267.2;" xml:space="preserve">
<style type="text/css">
	.st0{fill:#FFFFFF;}
</style>
<sodipodi:namedview  bordercolor="#666666" borderopacity="1" gridtolerance="10" guidetolerance="10" id="namedview4496" inkscape:current-layer="Capa_1" inkscape:cx="133.91149" inkscape:cy="133.5995" inkscape:pageopacity="0" inkscape:pageshadow="2" inkscape:window-height="1018" inkscape:window-maximized="1" inkscape:window-width="1920" inkscape:window-x="-8" inkscape:window-y="-8" inkscape:zoom="3.1848921" objecttolerance="10" pagecolor="#ffffff" showgrid="false">
	</sodipodi:namedview>
<path class="st0" d="M104.6,105.9c0-15.7,8.2-24.1,24.2-24.1h18.6v10.1h-16.8c-8.1,0-11.6,1.4-11.9,9.1h28.7v10.1h-28.7
	c0.3,7.9,3.6,9,11.8,9h16.9V130h-18.6C112.8,130,104.6,121.7,104.6,105.9"/>
<path class="st0" d="M187.3,120.2v-10h-15c-5.4,0-7.9,1.1-7.9,5.4c0,4,2.3,4.6,6.9,4.6H187.3z M180.6,81.8c13.2,0,19.8,6.1,19.8,18
	V130h-34.2c-9.6,0-14.9-5.1-14.9-13.9c0-11.2,5.8-15.4,19.2-15.4h16.7v-1.2c0-6.1-3.5-7.8-11.5-7.8h-21.2v-10"/>
<path class="st0" d="M207.5,64.3h13.4v12h-13.4V64.3z M207.5,127.1V81.8h13.4v45.8c0,13.5-5.1,19.8-17,19.8h-8.2v-10.2h5.6
	C206.1,137.3,207.5,133.9,207.5,127.1"/>
<path class="st0" d="M54.9,175.1h7.8c9.9,0,14.2-3.6,14.2-14.1c0-10-3.8-13.3-13.2-13.3h-8.8V175.1z M66.7,137.3
	c14.9,0,23.5,9.3,23.5,24.7c0,6.4-1.7,11.7-5.2,16.1c-4.6,5.8-10.4,7.4-19.1,7.4h-11v17.5H42.2v-65.7"/>
<path class="st0" d="M117.3,137.3c14.3,0,20.1,4.8,20.1,17.7v30.5h-12.7v-29c0-6.7-1.2-8.6-8.4-8.6H106v37.6H93.3v-48.2"/>
<polyline class="st0" points="149.7,137.3 163.1,171.4 177.3,137.3 191,137.3 169.6,185.4 155.9,185.4 135.5,137.3 "/>
</svg>
