<?xml version="1.0" encoding="utf-8"?>
<!-- Generator: Adobe Illustrator 22.0.1, SVG Export Plug-In . SVG Version: 6.00 Build 0)  -->
<svg version="1.1"
	 id="Capa_1" inkscape:version="0.92.1 r15371" sodipodi:docname="Logotipo_del_PSOE.svg" xmlns:cc="http://creativecommons.org/ns#" xmlns:dc="http://purl.org/dc/elements/1.1/" xmlns:inkscape="http://www.inkscape.org/namespaces/inkscape" xmlns:rdf="http://www.w3.org/1999/02/22-rdf-syntax-ns#" xmlns:sodipodi="http://sodipodi.sourceforge.net/DTD/sodipodi-0.dtd" xmlns:svg="http://www.w3.org/2000/svg"
	 xmlns="http://www.w3.org/2000/svg" xmlns:xlink="http://www.w3.org/1999/xlink" x="0px" y="0px" viewBox="0 0 267.2 267.2"
	 style="enable-background:new 0 0 267.2 267.2;" xml:space="preserve">
<style type="text/css">
	.st0{fill:#FFFFFF;}
</style>
<sodipodi:namedview  bordercolor="#666666" borderopacity="1" gridtolerance="10" guidetolerance="10" id="namedview4496" inkscape:current-layer="Capa_1" inkscape:cx="133.91149" inkscape:cy="133.5995" inkscape:pageopacity="0" inkscape:pageshadow="2" inkscape:window-height="1018" inkscape:window-maximized="1" inkscape:window-width="1920" inkscape:window-x="-8" inkscape:window-y="-8" inkscape:zoom="3.1848921" objecttolerance="10" pagecolor="#ffffff" showgrid="false">
	</sodipodi:namedview>
<path class="st0" d="M122.1,141.7c0,1.9-0.4,3.5-1.3,4.6c-0.9,1.1-2.4,1.6-4.2,1.6h0c-0.6,0-1.1-0.1-1.7-0.2l0,0l0,0
	c-2.1-0.7-3-2.7-3.1-5.3v-13.8l0.2-0.2c1.3-1.2,3.1-2.1,4.9-2.1c1.9,0,3.3,0.6,4.1,1.7c0.8,1.2,1.1,2.3,1.1,4.3L122.1,141.7z
	 M119.7,117.5c-3,0-5.4,0.9-7.1,2.1l-0.9,0.7v-14.5c0-1.3-0.4-1.7-1-2.1c-0.6-0.3-1.7-0.4-3-0.4c-0.4,0-0.9,0-1.4,0
	c-0.5,0-0.6,0-1,0c-1.3,0-2.4,0.1-3,0.4c-0.6,0.3-0.9,0.8-1,2.1l0,35.1l-0.6,0h0.6c0,5.3,1.3,9.2,3.8,11.9c2.5,2.6,6.1,4,10.9,4
	c0.3,0,0.4,0,0.8,0c0.1,0-0.1,0,0.1,0c1.6,0,3.8-0.1,4.7-0.3l0.4,0l-0.4,0c3.6-0.6,6.3-2.2,8-4.9c1.8-2.6,2.7-5.4,2.7-10v-6.7
	c0-5.7-0.7-10.1-2.6-12.9C127.9,119,124.8,117.5,119.7,117.5"/>
<path class="st0" d="M189.4,142.3c-0.1,2.6-1,4.6-3.1,5.3l0,0l0,0c-0.6,0.2-1.1,0.2-1.7,0.2h0c-1.9,0-3.3-0.5-4.2-1.6
	c-0.9-1.1-1.3-2.6-1.3-4.6v-9.1c0-1.9,0.3-3.5,1.1-4.6c0.9-1.2,2.3-1.7,4.1-1.7c1.8,0,3.6,0.9,4.9,2.1l0.2,0.2V142.3z M198.9,103.6
	c-0.5-0.3-1.5-0.4-2.7-0.4c-0.6,0-0.8,0-1.5,0c-0.6,0-1.3,0-1.8,0c-1.2,0-2.1,0.1-2.7,0.4c-0.5,0.3-0.9,0.7-0.9,2l0.1,15.8l-1-1
	c-1.6-1.7-4.1-2.9-7-2.9h-0.4c-5.1,0-7.8,1.5-9.7,4.3c-1.9,2.8-2.6,7.2-2.6,12.9v5.9c0,4.6,0.9,8.3,2.7,10.9c1.8,2.6,4.4,4.2,8,4.9
	l-0.3,0h0c0.9,0.2,3.4,0.3,5.1,0.3h0.4c0.5,0,0.3,0,0.6,0c4.8,0,8.4-1.4,10.9-4c2.5-2.6,3.8-6.6,3.8-11.9l0-35.2l0,0.4
	C199.7,104.7,199.4,103.9,198.9,103.6"/>
<path class="st0" d="M146.9,120.1c-0.6-0.3-1.6-0.4-2.8-0.4c-0.5,0-1.1,0-1.7,0c-0.6,0-1.2,0-1.7,0c0,0-0.1,0-0.1,0
	c-1.1,0-2.1,0.1-2.6,0.4c-0.6,0.3-0.9,0.7-0.9,2v31.5c0,1.3,0.4,1.7,0.9,2c0.6,0.3,1.6,0.4,2.9,0.4c0.3,0,0.7,0,1,0v0h1.1v0
	c0.4,0,0.7,0,1,0c1.2,0,2.3-0.1,2.9-0.4c0.6-0.3,0.9-0.8,0.9-2V122C147.7,120.8,147.4,120.4,146.9,120.1"/>
<path class="st0" d="M142.3,104c-3.3,0-5.9,2.7-5.9,6c0,3.3,2.7,5.9,5.9,5.9c3.4,0,6-2.7,6-5.9C148.3,106.7,145.7,104,142.3,104"/>
<path class="st0" d="M51.3,132.5H40l0-1.4c0-1.8,0.6-3.3,1.6-4.3c1-1,2.5-1.5,4.1-1.5c1.6,0,3,0.5,4,1.5c1,1,1.5,2.5,1.5,4.3V132.5z
	 M46,117.5c-5.4,0-9.4,2.3-12.1,5.8c-2.7,3.4-4.1,7.9-4.1,12.2v2.6c0,4.3,1.1,9,3.7,12.5c2.6,3.5,6.5,5.9,12.4,6
	c3.1,0,8.9-0.5,13-2.9c0.5-0.3,0.8-0.5,0.9-0.8c0.2-0.2,0.2-0.4,0.2-0.8c0-0.6-0.3-1.5-0.5-2.7c-0.3-1-0.6-1.9-1-2.4
	c-0.4-0.5-0.8-0.8-1.4-0.8c-0.3,0-0.6,0.1-1,0.2c-2.7,0.9-6,1.7-9.6,1.7c-1.8,0-3.5-0.6-4.9-1.6c-1.3-1.1-2.4-2.8-2.4-4.8l0-1.7
	h18.7c1.9,0,3.4-1.5,3.4-3.5v-3.1c0-4.3-1.1-8.3-3.6-11.2C55.5,119.3,51.7,117.5,46,117.5"/>
<path class="st0" d="M94.2,121.2c-1.9-2.3-4.9-3.7-9.5-3.7c-3.1,0-5.8,0.7-7.9,1.8l-0.8,0.4v-14c0-1.3-0.4-1.7-1-2.1
	c-0.6-0.3-1.7-0.4-3-0.4c-0.4,0-0.9,0-1.4,0c-0.5,0-0.9,0-1.4,0c-1.3,0-2.3,0.1-3,0.4c-0.6,0.3-1,0.8-1,2.8v47.8
	c0,0.5,0.4,1,0.9,1.3c0.6,0.3,1.6,0.4,2.8,0.4c0.5,0,1,0,1.6,0c0.6,0,1.1,0,1.6,0c1.2,0,2.3-0.1,2.9-0.4c0.6-0.3,0.9-0.8,0.9-2V130
	l0.1-0.2c1.3-1.5,3.2-2.4,5.2-2.4h0.1c1.9,0,3.3,0.7,4,1.7c0.7,1.1,0.9,2.3,0.9,3.5v20.7c0,1.3,0.4,1.7,0.9,2
	c0.6,0.3,1.6,0.4,2.9,0.4c0.3,0,0.7,0,1,0v0h0.6c0.1,0,0.2,0,0.2,0h0.3v0c0.4,0,0.7,0,1,0c1.2,0,2.3-0.1,2.8-0.4
	c0.6-0.3,0.9-0.8,0.9-2v-22.2C96.9,127,96.1,123.5,94.2,121.2"/>
<path class="st0" d="M161.2,156.5c-1.5,0-3.4-0.4-4.7-1.4c-2-1.5-3.7-4.1-3.7-8.2v-39.2c0-2.8,2.3-2.6,5-2.6c2.8,0,5.4-0.2,5.4,2.6
	v38.6c0,2,1,2.1,2.2,2.1c0.8,0,0.8,2,0.8,3.3c0,1.7,0,3.8-1.2,4.4C164.2,156.5,162.4,156.5,161.2,156.5"/>
<path class="st0" d="M237.3,149.4c0.1-1.9-3-0.1-3-3.4v-1.6l0,0V121c0-1.3-0.4-1.7-1-2c-0.6-0.3-1.7-0.4-3-0.4c-0.4,0-0.7,0-1.1,0
	c-0.4,0-0.8,0-1.1,0c-1.3,0-2.4,0.1-3.1,0.4c-0.6,0.3-1,0.7-1,2v23.2l-0.1,0.2c-1.2,1.4-3,2.3-5,2.3c-1.8,0-3.1-0.5-3.8-1.5
	c-0.7-1-0.9-2.2-0.9-3.6v-20.7c0-1.2-0.3-1.6-0.9-1.9c-0.6-0.3-1.5-0.4-2.7-0.4c-0.5,0-1.1,0-1.6,0c-0.6,0-1.1,0-1.6,0h-0.1
	c-1.1,0-2,0.1-2.5,0.4c-0.5,0.3-0.8,0.7-0.9,1.9v22.2c0,4,0.9,7.3,2.8,9.6c1.9,2.2,4.8,3.5,8.9,3.5c4.2,0,7.5-1.5,10-3.6l0.4-0.4
	l0.4,0.4c0.4,0.5,0.7,0.9,1.1,1.2c0.2,0.2,0.5,0.5,0.8,0.7c1.2,1,2.7,1.4,4.2,1.4c2.8,0,4.9,0.3,4.9-1.9
	C237.4,152.8,237.3,150.3,237.3,149.4"/>
</svg>
