<?xml version="1.0" encoding="utf-8"?>
<!-- Generator: Adobe Illustrator 22.0.1, SVG Export Plug-In . SVG Version: 6.00 Build 0)  -->
<svg version="1.1"
	 id="Capa_1" inkscape:version="0.92.1 r15371" sodipodi:docname="Logotipo_del_PSOE.svg" xmlns:cc="http://creativecommons.org/ns#" xmlns:dc="http://purl.org/dc/elements/1.1/" xmlns:inkscape="http://www.inkscape.org/namespaces/inkscape" xmlns:rdf="http://www.w3.org/1999/02/22-rdf-syntax-ns#" xmlns:sodipodi="http://sodipodi.sourceforge.net/DTD/sodipodi-0.dtd" xmlns:svg="http://www.w3.org/2000/svg"
	 xmlns="http://www.w3.org/2000/svg" xmlns:xlink="http://www.w3.org/1999/xlink" x="0px" y="0px" viewBox="0 0 267.2 267.2"
	 style="enable-background:new 0 0 267.2 267.2;" xml:space="preserve">
<style type="text/css">
	.st0{fill:#FFFFFF;}
</style>
<sodipodi:namedview  bordercolor="#666666" borderopacity="1" gridtolerance="10" guidetolerance="10" id="namedview4496" inkscape:current-layer="Capa_1" inkscape:cx="133.91149" inkscape:cy="133.5995" inkscape:pageopacity="0" inkscape:pageshadow="2" inkscape:window-height="1018" inkscape:window-maximized="1" inkscape:window-width="1920" inkscape:window-x="-8" inkscape:window-y="-8" inkscape:zoom="3.1848921" objecttolerance="10" pagecolor="#ffffff" showgrid="false">
	</sodipodi:namedview>
<path id="path4487" class="st0" d="M75.6,119.4c0-16.8-9.4-22.5-22.1-22.5H29.3v72.2h16.8v-26.2h6.2C66,142.8,75.6,136.5,75.6,119.4
	 M58.6,119.8c0,6.5-2,9.1-6.9,9.1h-5.6V111h5.7C56.7,110.9,58.6,113.4,58.6,119.8"/>
<path id="path4489" class="st0" d="M126.6,148.9c0-12-5.4-18-19.8-24.3c-7.3-3.3-9.1-5.4-9.1-9.3c0-2.7,1.8-5.1,5.1-5.1
	c4.6,0,6.3,1.9,11.2,7.8l11.8-10.8c-6-7.4-11.5-11.4-22.5-11.4c-13.7,0-22.2,9.3-22.2,21c0,11.5,5.2,16.9,19.5,23.2
	c7.9,3.6,9.1,6,9.1,10s-2.6,5.8-6.1,5.8s-7.4-3-12.1-8.7l-11.7,10.6c5.9,7.9,12.4,12.6,23.6,12.6
	C116.7,170.2,126.6,162.4,126.6,148.9"/>
<path id="path4491" class="st0" d="M183.1,132.9c0-25.4-9.6-37.1-25.5-37.1c-16,0-25.7,11.9-25.7,37.3c0,25.5,9.5,37.2,25.4,37.2
	C173.4,170.2,183.1,158.3,183.1,132.9 M165.5,133c0,17.5-2.6,22.3-7.9,22.3c-5.4,0-8.1-5-8.1-22.4s2.5-22.4,7.9-22.4
	C162.7,110.5,165.5,115.7,165.5,133"/>
<polygon id="polygon4493" class="st0" points="234,169.1 234,154.3 208.4,154.3 208.4,138.6 224.7,138.6 224.7,124 208.4,124 
	208.4,111.7 233.3,111.7 233.3,96.9 191.5,96.9 191.5,169.1 "/>
</svg>
