<?xml version="1.0" encoding="utf-8"?>
<!-- Generator: Adobe Illustrator 22.0.1, SVG Export Plug-In . SVG Version: 6.00 Build 0)  -->
<svg version="1.1"
	 id="Capa_1" inkscape:version="0.92.1 r15371" sodipodi:docname="Logotipo_del_PSOE.svg" xmlns:cc="http://creativecommons.org/ns#" xmlns:dc="http://purl.org/dc/elements/1.1/" xmlns:inkscape="http://www.inkscape.org/namespaces/inkscape" xmlns:rdf="http://www.w3.org/1999/02/22-rdf-syntax-ns#" xmlns:sodipodi="http://sodipodi.sourceforge.net/DTD/sodipodi-0.dtd" xmlns:svg="http://www.w3.org/2000/svg"
	 xmlns="http://www.w3.org/2000/svg" xmlns:xlink="http://www.w3.org/1999/xlink" x="0px" y="0px" viewBox="0 0 267.2 267.2"
	 style="enable-background:new 0 0 267.2 267.2;" xml:space="preserve">
<style type="text/css">
	.st0{fill:#FFFFFF;}
</style>
<sodipodi:namedview  bordercolor="#666666" borderopacity="1" gridtolerance="10" guidetolerance="10" id="namedview4496" inkscape:current-layer="Capa_1" inkscape:cx="133.91149" inkscape:cy="133.5995" inkscape:pageopacity="0" inkscape:pageshadow="2" inkscape:window-height="1018" inkscape:window-maximized="1" inkscape:window-width="1920" inkscape:window-x="-8" inkscape:window-y="-8" inkscape:zoom="3.1848921" objecttolerance="10" pagecolor="#ffffff" showgrid="false">
	</sodipodi:namedview>
<g>
	<path class="st0" d="M53.4,78.6l15.8,38.7h0.6l15.8-38.7h11.8V132h-9.3V95.3h-0.5L73,131.8h-6.9L51.3,95.2h-0.5V132h-9.3V78.6H53.4
		z"/>
	<path class="st0" d="M104.9,120.8c0-9,7.4-11.3,15.2-12.2c7.1-0.8,9.9-0.9,9.9-3.6v-0.2c0-3.9-2.4-6.2-6.8-6.2
		c-4.6,0-7.3,2.3-8.2,5.1l-8.8-1.3c2.1-7.3,8.5-11,17-11c7.6,0,16.3,3.2,16.3,13.8V132h-9.1v-5.5h-0.3c-1.7,3.4-5.5,6.3-11.8,6.3
		C110.7,132.8,104.9,128.6,104.9,120.8z M130,117.6v-4.7c-1.2,1-6.2,1.6-8.6,2c-4.2,0.6-7.4,2.1-7.4,5.7c0,3.5,2.8,5.3,6.7,5.3
		C126.5,125.9,130,122.1,130,117.6L130,117.6z M125.8,74.8h9.3l-8,11.9H120L125.8,74.8z"/>
	<path class="st0" d="M170.2,103.5c-0.7-2.6-3-5-7.4-5c-3.9,0-6.9,1.9-6.9,4.6c0,2.3,1.6,3.7,5.7,4.6l6.8,1.5
		c7.6,1.6,11.2,5.1,11.3,10.8c0,7.6-7.1,12.8-17.1,12.8c-9.8,0-16-4.4-17.2-11.7l9.2-0.9c0.8,3.6,3.6,5.5,7.9,5.5
		c4.5,0,7.4-2.1,7.4-4.8c0-2.3-1.7-3.7-5.4-4.6l-6.8-1.4c-7.7-1.6-11.3-5.5-11.3-11.3c0-7.4,6.5-12.1,16.2-12.1
		c9.4,0,14.8,4.3,16.1,11.1L170.2,103.5z"/>
	<path class="st0" d="M104.1,145.5h5.7v6.1h0.7c1.3-2,3.6-6.6,11-6.6c9.6,0,16.3,7.7,16.3,19.7c0,12.1-6.7,19.8-16.2,19.8
		c-7.4,0-9.9-4.6-11.1-6.7h-0.5V198h-5.9V145.5z M120.8,179.2c7.4,0,11.1-6.5,11.1-14.6c0-8.1-3.7-14.3-11.1-14.3
		c-7.2,0-10.9,5.8-10.9,14.3C109.8,173.2,113.7,179.2,120.8,179.2L120.8,179.2z"/>
	<path class="st0" d="M145,172.8c0-8.8,7.7-10.3,14.8-11.2c7-0.9,9.9-0.6,9.9-3.5v-0.2c0-4.9-2.7-7.8-8.1-7.8c-5.6,0-8.7,3-10,5.8
		l-5.6-2c3-7,9.6-9,15.3-9c4.9,0,14.1,1.4,14.1,13.5v25.2h-5.9v-5.2h-0.3c-1.2,2.5-4.7,6.1-11.3,6.1
		C150.7,184.6,145,180.3,145,172.8z M169.6,169.9v-5.4c-1,1.2-7.7,1.9-10.1,2.2c-4.6,0.6-8.7,2-8.7,6.5c0,4.1,3.4,6.2,8.1,6.2
		C165.8,179.3,169.6,174.6,169.6,169.9L169.6,169.9z"/>
	<path class="st0" d="M186.2,145.5h5.9v38.2h-5.9V145.5z M192.6,128.8h6.9l-7.7,11.5h-5.2L192.6,128.8z"/>
	<path class="st0" d="M224.7,155.5c-1-2.6-3.1-5.5-8.3-5.5c-4.7,0-8.2,2.4-8.2,5.7c0,2.9,2,4.5,6.6,5.6l5.7,1.4
		c6.8,1.7,10.1,5,10.1,10.3c0,6.6-6,11.4-14.9,11.4c-7.8,0-13.2-3.5-14.5-10l5.6-1.4c1,4.1,4.1,6.2,8.9,6.2c5.5,0,9-2.7,9-6
		c0-2.6-1.8-4.5-5.7-5.4l-6.4-1.5c-7-1.6-10.1-5.2-10.1-10.4c0-6.4,6-11,14-11c7.6,0,11.7,3.6,13.5,9.1L224.7,155.5z"/>
</g>
</svg>
