<?xml version="1.0" encoding="utf-8"?>
<!-- Generator: Adobe Illustrator 22.0.1, SVG Export Plug-In . SVG Version: 6.00 Build 0)  -->
<svg version="1.1"
	 id="Capa_1" inkscape:version="0.92.1 r15371" sodipodi:docname="Logotipo_del_PSOE.svg" xmlns:cc="http://creativecommons.org/ns#" xmlns:dc="http://purl.org/dc/elements/1.1/" xmlns:inkscape="http://www.inkscape.org/namespaces/inkscape" xmlns:rdf="http://www.w3.org/1999/02/22-rdf-syntax-ns#" xmlns:sodipodi="http://sodipodi.sourceforge.net/DTD/sodipodi-0.dtd" xmlns:svg="http://www.w3.org/2000/svg"
	 xmlns="http://www.w3.org/2000/svg" xmlns:xlink="http://www.w3.org/1999/xlink" x="0px" y="0px" viewBox="0 0 267.2 267.2"
	 style="enable-background:new 0 0 267.2 267.2;" xml:space="preserve">
<style type="text/css">
	.st0{clip-path:url(#SVGID_2_);fill:#FFFFFF;}
	.st1{fill:#FFFFFF;}
</style>
<g>
	<defs>
		<path id="SVGID_1_" d="M96.8,67.5l-0.1,0c-4.6,0.5-9.1,1.6-13.5,3.1c-2.9,1-5.7,2.2-8.4,3.6c-2.2,1.1-4.3,2.4-6.3,3.8
			c-0.1,0.1-0.4,0.2-0.4,0.4c-0.4,0.2-0.7,0.4-1,0.6c-1.3,1-2.6,2-3.7,3.1c-1,0.9-1.9,1.8-2.9,2.8c-0.4,0.5-1,0.9-1.3,1.5
			c-0.9,0.8-1.6,1.8-2.3,2.7c-0.5,0.7-1.1,1.3-1.5,2.1c-1.5,2-2.7,4.1-3.8,6.3c-0.3,0.2-0.4,0.6-0.6,0.9c-0.2,0.5-0.5,0.9-0.5,1.4
			c-0.5,1.1-1,2.3-1.4,3.4c-0.4,0.7-0.7,1.4-0.7,2.2c-0.1,0.2-0.1,0.4-0.2,0.6c-0.3,0.3-0.3,0.8-0.4,1.2c-0.1,0.5-0.3,1-0.3,1.6
			l0,0.1c-0.4,0.5-0.4,1.2-0.4,1.8c-0.1,0.3-0.1,0.5-0.2,0.8c-0.3,0.8-0.4,1.7-0.4,2.6l0,0.1c-0.3,0.6-0.2,1.3-0.3,1.9
			c-0.4,3.2-0.4,6.4-0.4,9.6c0,2.1,0.2,4.1,0.5,6.2c0.1,0.5,0.1,0.9,0.2,1.4l0,0.2c0,1.1,0.1,2.1,0.5,3.1l0,0.1c0,0.7,0,1.4,0.4,2
			c0.3,1.5,0.7,2.9,1.1,4.3c0,0.6,0.2,1.1,0.5,1.7v-0.1c0.2,0.7,0.4,1.4,0.7,2.1c0.1,0.6,0.3,1.3,0.7,1.8l0,0.1
			c0,0.5,0.2,0.9,0.5,1.2c2.1,5,5,9.7,8.6,13.8c2.1,2.3,4.3,4.4,6.7,6.3c1.3,1,2.7,2,4.3,2.2c0.8,0.1,1.7-0.2,2-1
			c0.4-0.5,0.4-1.2,0.4-1.8c-0.1-0.6,0-1.3-0.4-1.8c0-0.3-0.1-0.5-0.2-0.8c-0.1-0.7-0.2-1.5-0.6-2.2c-0.4-1.7-0.9-3.4-1.5-5.1
			c-0.1-0.6-0.2-1.3-0.6-1.8c-0.4-1.5-0.9-2.9-1.4-4.4c-0.1-0.8-0.3-1.6-0.7-2.3l0-0.1c-0.1-0.8-0.3-1.6-0.7-2.4
			c-0.1-0.5-0.2-0.9-0.4-1.4c-0.2-1-0.3-2.1-0.8-3c0-0.2-0.1-0.4-0.1-0.6c0-0.8-0.2-1.6-0.5-2.4c0-0.3-0.1-0.7-0.2-1
			c-0.1-0.7,0-1.5-0.4-2.2c-0.6-3.9-0.8-7.8-0.6-11.7c0.2-1,0.1-2,0.3-3c0.2-1.3,0.4-2.7,0.7-4l-0.1-0.1l0.1,0.1
			c0.2-1.3,0.6-2.6,0.9-4c0.4-1.3,0.9-2.6,1.3-3.9c0.1-0.2,0.3-0.5,0.4-0.7c0.7-1.8,1.6-3.4,2.5-5.1c1-1.8,2.2-3.4,3.5-5l0-0.1
			c0.4-0.4,0.7-0.8,1.1-1.2c1-1.2,2.1-2.2,3.2-3.3c2.1-1.8,4.4-3.5,6.8-5v-0.1c1-0.5,1.9-1,2.8-1.5c4-2,8.2-3.5,12.6-4.5
			c6.1-1.3,12.4-1.6,18.5-0.5c3.6,0.6,7,1.7,10.3,3c1.9,0.9,3.7,1.7,5.5,2.7v0c2.5,1.4,4.9,3,7.1,4.8v0c1.6,1.3,3.1,2.6,4.4,4.1
			c1.3,1.4,2.5,3,3.7,4.5c0.2,0.7,0.9,1.2,1.6,1c0.6-0.2,1-0.7,1.5-1.2v0c1.1-0.8,2.1-1.8,3.2-2.6v-0.1c0.5-0.4,1-0.7,1.5-1.1
			c0.5-0.4,1-0.7,1.5-1.1c0.2-0.1,0.4-0.3,0.5-0.4c0.7-0.3,1.3-0.7,1.8-1.3c0.9-0.5,1.8-1.1,2.7-1.7c0.6-0.1,1.3-0.4,1.6-1
			c0.5-0.2,0.9-0.5,1.4-0.8c0.5-0.1,1-0.3,1.3-0.7c0.5-0.2,1.1-0.5,1.6-0.8c0.5,0,0.9-0.2,1.2-0.6c0.5-0.2,1.1-0.5,1.6-0.7
			c0.7,0,1.2-0.4,1.8-0.7l0.1,0c0.4,0,0.9-0.2,1.2-0.5l0.3-0.1c0.6-0.1,1.2-0.3,1.8-0.7l0.3-0.1c0.5,0,1-0.2,1.4-0.5
			c0.9-0.2,1.8-0.5,2.7-0.8c0.7,0,1.4-0.2,2-0.5l0.1,0c0.9-0.1,1.8-0.2,2.5-0.6c0.3-0.1,0.7-0.1,1-0.2c1,0,2-0.2,2.9-0.5
			c0.6-0.1,1.2-0.1,1.7-0.3c1,0.1,2-0.2,3.1-0.2c1.2-0.2,2.4-0.1,3.6-0.3c1.7,0,3.3,0,5,0c0.8,0.2,1.6,0.1,2.5,0.2
			c1.1,0.1,2.1,0.2,3.2,0.3c0.4,0,0.8-0.3,1-0.7c0.3-0.6,0.1-1.4-0.5-1.7c-2.7-1.6-5.5-3.1-8.5-4.1c-0.6-0.4-1.3-0.6-2-0.7l-0.1,0
			c-0.5-0.4-1.2-0.5-1.8-0.5c-0.3-0.1-0.5-0.2-0.8-0.2c-0.7-0.4-1.4-0.5-2.2-0.5c-0.3-0.1-0.6-0.2-1-0.2c-0.8-0.3-1.6-0.4-2.4-0.4
			l-0.1,0c-1.5-0.4-3-0.3-4.5-0.5c-1.8-0.1-3.7,0-5.5,0.3c-0.7,0-1.3,0.1-1.9,0.2c-1.1,0-2.1,0.2-3.1,0.5l-0.1,0
			c-0.8,0-1.6,0.2-2.4,0.6l-0.1,0c-0.9,0.1-1.7,0.3-2.5,0.7l-0.1,0c-0.5,0-1,0.2-1.5,0.4l0.2,0c-0.3,0.1-0.5,0.1-0.7,0.3
			c-0.5,0-1,0.2-1.4,0.6l-0.1,0c-0.6,0.1-1.1,0.3-1.6,0.7l-0.1,0c-0.5,0-0.9,0.3-1.2,0.6c-2.2,1-4.3,2.3-6.3,3.7
			c-0.3,0.2-0.6,0.4-0.9,0.6c-0.5,0.3-0.9,0.7-1.4,1c-0.8,0.6-1.6,1.2-2.3,1.9c-0.7,0.6-1.5,1.6-2.5,1.1c-0.2-0.2-0.3-0.4-0.5-0.5
			c-1.6-2.5-3.4-4.7-5.5-6.8c-2.6-2.5-5.4-4.7-8.5-6.5c-5.8-3.4-12.4-5.6-19-6.8C110.9,67,103.8,66.6,96.8,67.5"/>
	</defs>
	<use xlink:href="#SVGID_1_"  style="overflow:visible;fill:#FFFFFF;"/>
	<clipPath id="SVGID_2_">
		<use xlink:href="#SVGID_1_"  style="overflow:visible;"/>
	</clipPath>
	<ellipse id="ellipse17" class="st0" cx="133.6" cy="128.1" rx="97.3" ry="97.2"/>
</g>
<g id="_ffffffff">
	<path id="path116" inkscape:connector-curvature="0" class="st1" d="M104.4,108.5c5.6-1.4,11.3-2,17-2c5.4,0,11.1,1.1,15.7,4.1
		c3.4,2.2,6,5.6,7.6,9.3c1.3,3,2,6.1,2.3,9.3c0.5,5.1,0.3,10.4-1.1,15.4c-1,3.5-2.5,6.9-4.8,9.7c-2.1,2.6-4.9,4.7-8,6.1
		c-4.3,1.9-9,2.1-13.6,1.8c-2.7-0.1-5.3-0.5-8-1c0,6.5,0,12.9,0,19.4c0.1,0.8-0.5,1.6-1.4,1.6c-3.8,0.1-7.6,0-11.5,0
		c-0.7,0-1.4,0.1-2-0.3c-0.5-0.4-0.7-1.1-0.7-1.7c0-22.2,0-44.4,0-66.5c-0.1-1.2,0.6-2.3,1.7-2.9
		C99.8,109.8,102.1,109.1,104.4,108.5 M114,120.2c-0.8,0.1-1.6,0.4-2.4,0.5c-0.1,9.1,0,18.3,0,27.5c3.4,0.9,7,1.2,10.6,0.9
		c0.8-0.1,1.5-0.4,2.2-0.6c2.3-0.9,4.1-2.8,5.1-5c1.3-2.9,1.6-6.1,1.7-9.2c-0.1-3.5-0.3-7.2-2.2-10.2c-1.4-2.3-4-3.7-6.6-4.1
		C119.5,119.5,116.7,119.8,114,120.2L114,120.2z"/>
	<path id="path118" inkscape:connector-curvature="0" class="st1" d="M172.6,106.5c2.8,0,5.5-0.2,8.2,0.2c3.1,0.4,6.2,1.2,9,2.6
		c2.9,1.5,5.5,3.7,7.4,6.3c3.4,4.9,4.7,10.9,4.9,16.8c0.3,5.6-0.5,11.3-2.8,16.5c-2,4.5-5.4,8.5-9.8,10.8c-4.6,2.4-10,2.9-15.1,2.5
		c-2.7,0-5.3-0.5-7.9-1c0,6.6,0,13.1,0,19.7c0,0.9-0.9,1.3-1.6,1.3c-4,0-8,0-12,0c-0.7,0-1.5-0.3-1.7-1c-0.2-0.6-0.1-1.3-0.1-1.9
		c0-21.9,0-43.7,0-65.6c0-0.7,0.1-1.5,0.7-2.1c0.9-0.9,2.1-1.4,3.2-1.8C160.6,107.7,166.6,106.9,172.6,106.5 M170.6,120
		c-1.4,0.1-2.8,0.4-4.1,0.8c0,9.1,0,18.2,0,27.3c3.4,0.9,7,1.2,10.5,0.9c1.6-0.2,3-0.8,4.3-1.7c1.6-1.1,2.7-2.8,3.4-4.6
		c1.3-3.5,1.5-7.3,1.3-10.9c-0.2-2.3-0.6-4.7-1.6-6.7c-0.9-1.9-2.5-3.4-4.4-4.2C177.1,119.5,173.7,119.6,170.6,120L170.6,120z"/>
</g>
</svg>
