<?xml version="1.0" encoding="utf-8"?>
<!-- Generator: Adobe Illustrator 22.0.1, SVG Export Plug-In . SVG Version: 6.00 Build 0)  -->
<svg version="1.1"
	 id="Capa_1" inkscape:version="0.92.1 r15371" sodipodi:docname="Logotipo_del_PSOE.svg" xmlns:cc="http://creativecommons.org/ns#" xmlns:dc="http://purl.org/dc/elements/1.1/" xmlns:inkscape="http://www.inkscape.org/namespaces/inkscape" xmlns:rdf="http://www.w3.org/1999/02/22-rdf-syntax-ns#" xmlns:sodipodi="http://sodipodi.sourceforge.net/DTD/sodipodi-0.dtd" xmlns:svg="http://www.w3.org/2000/svg"
	 xmlns="http://www.w3.org/2000/svg" xmlns:xlink="http://www.w3.org/1999/xlink" x="0px" y="0px" viewBox="0 0 267.2 267.2"
	 style="enable-background:new 0 0 267.2 267.2;" xml:space="preserve">
<style type="text/css">
	.st0{fill:#FFFFFF;}
</style>
<sodipodi:namedview  bordercolor="#666666" borderopacity="1" gridtolerance="10" guidetolerance="10" id="namedview4496" inkscape:current-layer="Capa_1" inkscape:cx="133.91149" inkscape:cy="133.5995" inkscape:pageopacity="0" inkscape:pageshadow="2" inkscape:window-height="1018" inkscape:window-maximized="1" inkscape:window-width="1920" inkscape:window-x="-8" inkscape:window-y="-8" inkscape:zoom="3.1848921" objecttolerance="10" pagecolor="#ffffff" showgrid="false">
	</sodipodi:namedview>
<g>
	<path class="st0" d="M57.3,150.9h13.5v-39.8H59.7v-6.9c6-1.1,10.2-2.7,14-5h8.2v51.6h11.9v8.9H57.3V150.9z"/>
	<path class="st0" d="M102.9,129.3c0-20.5,8-31.1,20.6-31.1c12.6,0,20.6,10.8,20.6,31.1c0,20.5-8,31.7-20.6,31.7
		C110.9,161,102.9,149.8,102.9,129.3z M133.6,129.3c0-17.1-4.2-22.6-10.1-22.6c-5.8,0-10.1,5.4-10.1,22.6c0,17.1,4.3,23.1,10.1,23.1
		C129.4,152.4,133.6,146.5,133.6,129.3z"/>
	<path class="st0" d="M155.7,97.6h11.3l19.3,35l6.5,13.2h0.4c-0.6-6.4-1.4-14.3-1.4-21.2v-27h10.5v62.3H191l-19.3-35l-6.5-13.2h-0.4
		c0.6,6.6,1.4,14.1,1.4,21v27.2h-10.5V97.6z"/>
</g>
</svg>
