<?xml version="1.0" encoding="utf-8"?>
<!-- Generator: Adobe Illustrator 22.0.1, SVG Export Plug-In . SVG Version: 6.00 Build 0)  -->
<svg version="1.1"
	 id="Capa_1" inkscape:version="0.92.1 r15371" sodipodi:docname="Logotipo_del_PSOE.svg" xmlns:cc="http://creativecommons.org/ns#" xmlns:dc="http://purl.org/dc/elements/1.1/" xmlns:inkscape="http://www.inkscape.org/namespaces/inkscape" xmlns:rdf="http://www.w3.org/1999/02/22-rdf-syntax-ns#" xmlns:sodipodi="http://sodipodi.sourceforge.net/DTD/sodipodi-0.dtd" xmlns:svg="http://www.w3.org/2000/svg"
	 xmlns="http://www.w3.org/2000/svg" xmlns:xlink="http://www.w3.org/1999/xlink" x="0px" y="0px" viewBox="0 0 267.2 267.2"
	 style="enable-background:new 0 0 267.2 267.2;" xml:space="preserve">
<style type="text/css">
	.st0{fill:#FFFFFF;}
</style>
<sodipodi:namedview  bordercolor="#666666" borderopacity="1" gridtolerance="10" guidetolerance="10" id="namedview4496" inkscape:current-layer="Capa_1" inkscape:cx="133.91149" inkscape:cy="133.5995" inkscape:pageopacity="0" inkscape:pageshadow="2" inkscape:window-height="1018" inkscape:window-maximized="1" inkscape:window-width="1920" inkscape:window-x="-8" inkscape:window-y="-8" inkscape:zoom="3.1848921" objecttolerance="10" pagecolor="#ffffff" showgrid="false">
	</sodipodi:namedview>
<g id="layer1" transform="translate(-64.285715,-402.55427)" inkscape:groupmode="layer" inkscape:label="Capa 1">
	<g id="g24688" transform="matrix(0.44643158,0,0,-0.44643158,-18.740505,895.18058)">
		<g id="g3263" transform="translate(203.1543,1071.3115)">
			<path id="path3265" inkscape:connector-curvature="0" class="st0" d="M111.6-223.6c16.8-58.5,16.4-56.8,17.5-60.1
				c0.7-2.2,4-5.2,6.2-5.2c3.7,0,6.4,2.5,8.8,10.6l34,98.2c4.6,12.8,6.6,12.8,17.5,12.8c14.3,0,13.2-7.3,11-13.9l-51.5-142
				c-2.6-7.3-7.3-11.6-14.3-11.6h-10.2c-5.8,0-11.9,2.5-15.3,12.7L82-222.3c-2,5.9,2.6,9.9,8.4,9.9h7.3
				C104.6-212.5,109.4-216.3,111.6-223.6"/>
		</g>
		<g id="g3267" transform="translate(359.8418,1014.0083)">
			<path id="path3269" inkscape:connector-curvature="0" class="st0" d="M229.2-266.7c-5.5-8.4-9.5-10.9-16.1-10.9h-10.6
				c-5.1,0-8.8,3.9-6.9,7.6c1.1,2.2,1.1,2,2.6,4.2l31.1,43.9c2.9,4,4.8,8.4,4.8,11.7c0,3.7-2,7.7-3.3,9.5l-23.2,33.2
				c-4.4,6.2-3.7,12.3,3.3,12.3h12.1c5.9,0,10.6-3.1,13.9-8.6l7.8-13.7c2.9-4.8,6.6-7.7,10.6-7.7c3.3,0,5,1.8,9.1,6.5l20.4,26.5
				c3.9,5.2,8.4,10.1,16.4,10.1h8.8c8.4,0,8-6.5,5.5-10.1l-34.7-44.7c-3.8-5.3-5.5-9.2-5.5-12.9c0-2.9,0.7-6.6,5.5-13.2l25.2-35.5
				c8.6-12.1,7.7-11.6,7.7-13.8c0-3.3-2.6-5.4-7.7-5.4h-11c-5.5,0-10.8,3-14.3,8.7l-16.1,25.7c-3.8,6-6.6,7.7-9.9,7.7
				c-4.4,0-7.7-3-10.6-7.8L229.2-266.7z"/>
		</g>
		<g id="g3271" transform="translate(296.3711,995.5366)">
			<path id="path3273" inkscape:connector-curvature="0" class="st0" d="M181.6-280.6c-52.7,0-81.4,39.7-81.4,83.8
				c0,58.9,42.1,85.7,80.4,85.7c53.6,0,82.3-40.7,82.3-84.7C263-245.1,230.4-280.6,181.6-280.6 M179.6-254.5
				c31.2,0,50.7,22.9,50.7,59c0,33.1-19,58.5-48.7,58.5c-27.8,0-48.7-20-48.7-58C132.8-230.2,152.3-254.5,179.6-254.5"/>
		</g>
	</g>
</g>
</svg>
